<?xml version="1.0" encoding="utf-8"?><!-- edited by constantine --><svg fill="#fff" viewBox="0 0 580 580" version="1.1" xmlns="http://www.w3.org/2000/svg" stroke="#fff" stroke-width="2"><path d="M575.27,4.36c0.22-0.28,0.22-0.67,0-0.95c-0.22-0.28-0.61-0.36-0.92-0.21l-54.77,26.24l-65.39,19.62l-78.58-26.19c-0.01,0-0.01,0-0.02,0c0,0,0,0-0.01,0c-0.01,0-0.01,0-0.02,0c-0.01,0-0.03-0.01-0.04-0.01c-0.02-0.01-0.05-0.01-0.07-0.02l-59.11-6.57c-0.03,0-0.06,0-0.08,0H290h-26.27c-0.03,0-0.06,0-0.08,0l-59.1,6.57c-0.02,0-0.05,0.01-0.07,0.02c-0.01,0-0.03,0-0.04,0.01c-0.01,0-0.01,0-0.02,0c0,0,0,0-0.01,0c-0.01,0-0.01,0-0.02,0l-78.58,26.19L60.42,29.45L5.65,3.2c-0.32-0.15-0.7-0.07-0.92,0.21c-0.22,0.28-0.22,0.67,0,0.95l41.63,52.47l39.17,84.86l-25.98,32.47c-0.01,0.01-0.01,0.01-0.01,0.02c0,0-0.01,0.01-0.01,0.01c-0.01,0.01-0.01,0.02-0.01,0.03c-0.02,0.03-0.04,0.05-0.05,0.08l-32.84,65.67c-0.04,0.09-0.07,0.18-0.08,0.28l-6.57,78.81c-0.01,0.16,0.02,0.32,0.11,0.45l19.65,32.75l19.66,65.53l6.56,45.91c0.03,0.23,0.17,0.44,0.38,0.55l45.92,26.24l65.63,52.5c0.01,0,0.02,0.01,0.02,0.01c0.07,0.05,0.14,0.09,0.22,0.12c0,0,0.01,0,0.01,0c0,0,0,0,0.01,0l111.64,32.84c0.07,0.02,0.14,0.03,0.21,0.03c0.07,0,0.14-0.01,0.21-0.03l0,0l111.64-32.84c0,0,0,0,0.01,0c0,0,0.01,0,0.01,0c0.08-0.03,0.16-0.07,0.22-0.12c0.01,0,0.02-0.01,0.02-0.01l65.63-52.5l45.92-26.24c0.2-0.12,0.34-0.32,0.38-0.55l6.56-45.91l19.66-65.53l19.65-32.75c0.08-0.14,0.12-0.29,0.11-0.45l-6.57-78.81c-0.01-0.1-0.03-0.19-0.08-0.28l-32.84-65.67c-0.01-0.03-0.03-0.05-0.05-0.08c0-0.01-0.01-0.02-0.01-0.02c0,0-0.01-0.01-0.01-0.01c0-0.01-0.01-0.02-0.01-0.02l-25.98-32.47l39.17-84.86L575.27,4.36zM516.58,31.94l-80.36,67.99l18.54-49.45L516.58,31.94zM514.1,371.99l24.06-18.04l-18.04,60.15L514.1,371.99zM467.83,488.69l-12.54-56.45l56.45,31.36L467.83,488.69zM68.26,463.6l56.44-31.36l-12.54,56.44L68.26,463.6zM59.88,414.1l-18.04-60.15l24.06,18.04L59.88,414.1zM288.55,189.73L205.79,24.23l57.29-6.37L288.55,189.73zM316.91,17.86l57.29,6.37l-82.75,165.51L316.91,17.86zM339.17,236.94l-22.32,51.33l-26.1,10.04V195.98L339.17,236.94zM428.43,410.49l-75.55-81.84l54.79,30.44l43.63,68.56L428.43,410.49zM351.34,329.23l75.63,81.93l-25.21,44.12L351.34,329.23zM151.57,410.49l-22.87,17.15l43.63-68.56l54.79-30.44L151.57,410.49zM415.54,266.58v-18.94h12.06l12.69,12.69v12.5l-12.83,12.82l-12.74,6.37l-18.23-6.08l18.83-18.83C415.46,266.97,415.54,266.78,415.54,266.58zM368.32,311.96l-15.05,10.03l35.71-41.67l21.94-10.97L368.32,311.96zM454.03,306.91l5.56,5.56l-24.84,18.63l-5.82-11.64L454.03,306.91zM427.44,319.88l5.81,11.61h-37.41v-11.61H427.44zM317.71,377.74l-0.09-0.26l30.43-48.69l-12.39,136.32l-18.22-85.02l0.31-1.57C317.81,378.26,317.8,377.99,317.71,377.74zM290,370.74l-17.18-11.46l17.18-5.73l17.18,5.73L290,370.74zM125.97,306.91l25.1,12.55l-5.82,11.64l-24.84-18.63L125.97,306.91zM152.56,319.88h31.6v11.61h-37.41L152.56,319.88zM164.68,267.12l18.83,18.83l-18.23,6.08l-12.74-6.37l-12.82-12.82v-12.5l12.69-12.69h12.06v18.94C164.46,266.78,164.54,266.97,164.68,267.12zM165.98,266.26v-17.22l24.91,31.14c0,0,0,0,0.01,0c0,0,0.01,0.01,0.01,0.01l35.81,41.78l-15.05-10.03L165.98,266.26zM347,325.79l-52.31,23.25l34.88-29.06L347,325.79zM330.73,318.76l44.68-51.07l12.06,12.06l-38.61,45.05L330.73,318.76zM291.98,349.32l17.17-39.48l18.88,9.44L291.98,349.32zM290.76,348.29v-47.65l17.02,8.51L290.76,348.29zM289.24,348.29l-17.02-39.14l17.02-8.51V348.29zM288.02,349.32l-36.05-30.04l18.88-9.44L288.02,349.32zM285.31,349.04L233,325.79l17.44-5.81L285.31,349.04zM231.14,324.8l-38.51-44.93l18.39-12.26l38.34,51.12L231.14,324.8zM210,266.46l-18.21,12.14l-30.35-60.71L210,266.46zM160.2,214.51l63.16-12.64l-12.63,63.16L160.2,214.51zM210.03,312.47l-24.35,18.26v-11.21l18.84-12.56L210.03,312.47zM185.43,332.95l41.5-5.93l-53.35,29.64L185.43,332.95zM187.76,331.08l23.46-17.6l17.6,11.73L187.76,331.08zM286.87,351.39l-17.05,5.68c-0.01,0-0.03,0.01-0.04,0.02l-34.19-28.5L286.87,351.39zM310.22,357.09c-0.01,0-0.03-0.01-0.04-0.02l-17.05-5.68l51.29-22.79L310.22,357.09zM394.57,332.95l11.86,23.71l-53.35-29.64L394.57,332.95zM351.18,325.21l17.6-11.73l23.46,17.6L351.18,325.21zM394.32,330.73l-24.35-18.26l5.51-5.51l18.84,12.56V330.73zM388.3,278.43l-11.89-11.88l41.6-47.54L388.3,278.43zM375.71,265.04l-18.94-63.14l63.14,12.63L375.71,265.04zM357.04,200.41l46.27-57.83l17.01,70.49L357.04,200.41zM373.91,264.34l-32.89-27.83l14.52-33.4L373.91,264.34zM373.91,266.33l-55.05,21.17l21.54-49.53L373.91,266.33zM372.78,268.39l-43.56,49.78l-19.47-9.73l8.25-18.98L372.78,268.39zM308.39,307.76l-16.5-8.25l24.13-9.28L308.39,307.76zM271.61,307.76l-8.06-18.54l24.62,10.26L271.61,307.76zM270.25,308.44l-19.43,9.71l-37.35-49.8l48.05,20.02L270.25,308.44zM212.59,266.33l28.14-25.8l19.92,45.83L212.59,266.33zM212.4,264.44l12.2-61.01l15.49,35.63L212.4,264.44zM159.67,213.06l17.01-70.49l46.26,57.83L159.67,213.06zM187.6,273.63l-21.67-27.08l-5.42-27.08L187.6,273.63zM152.09,246.12c-0.2,0-0.4,0.08-0.54,0.22l-13.13,13.13c-0.14,0.14-0.22,0.34-0.22,0.54v13.13c0,0.2,0.08,0.4,0.22,0.54l13.13,13.13c0.06,0.06,0.12,0.11,0.2,0.14l13.13,6.57c0.11,0.05,0.22,0.08,0.34,0.08c0.08,0,0.16-0.01,0.24-0.04l19.26-6.42l18.71,18.71l-18.74,12.49h-32.43l-25.93-12.96l-12.95-19.42l-6.51-26.05v-19.29l12.69-12.69h19.21l12.86,6.43l11.75,11.75H152.09zM139.71,226.7V210.7l10.67,21.34L139.71,226.7zM138.19,226.41h-18.18v-5.4l18.18-12.12V226.41zM118.49,226.86l-12.69,12.69h-5.02l5.9-11.81l11.81-5.9V226.86zM105.36,259.25h-5.05v-18.18h5.05V259.25zM98.87,239.97c-0.05,0.11-0.08,0.22-0.08,0.34v18.58L68.57,246.8l35.85-17.92L98.87,239.97zM99.1,261.35l6.04,24.17H68.88L99.1,261.35zM100.52,260.77h5l6.19,24.75h-5L100.52,260.77zM112.28,287.04l12.56,18.84l-5.38,5.38l-12.11-24.22H112.28zM119.32,313.55l25.23,18.92l-12.51,25.02l-37.78-18.89L119.32,313.55zM145.99,333.01h37.7l-12.37,24.75h-37.7L145.99,333.01zM228.66,329.23l-50.42,126.05l-25.21-44.12L228.66,329.23zM230.42,328.91l12.76,140.31l-63.78-12.75L230.42,328.91zM244.33,465.11l-12.39-136.32l30.43,48.69l-0.09,0.26c-0.08,0.25-0.1,0.52-0.05,0.78l0.31,1.57l-14.89,69.5L244.33,465.11zM263,375.61l-28.94-46.3l34.73,28.94L263,375.61zM271.36,360.14l17.88,11.92V498L265.3,378.32L271.36,360.14zM290.76,372.06l17.88-11.92l6.06,18.18L290.76,498V372.06zM311.22,358.25l34.73-28.94L317,375.61L311.22,358.25zM349.58,328.91l51.02,127.55l-63.78,12.76L349.58,328.91zM408.68,357.76l-12.37-24.75h37.7l12.37,24.75H408.68zM435.44,332.48l25.23-18.92l25.06,25.06l-37.78,18.89L435.44,332.48zM455.16,305.89l12.56-18.84h4.93l-12.11,24.22L455.16,305.89zM468.29,285.52l6.19-24.75h5l-6.19,24.75H468.29zM474.64,241.07h5.05v18.18h-5.05V241.07zM480.9,261.35l30.22,24.17h-36.26L480.9,261.35zM481.13,239.97l-5.55-11.09l35.85,17.92l-30.22,12.09v-18.58C481.21,240.19,481.18,240.07,481.13,239.97zM473.32,227.74l5.9,11.81h-5.02l-12.69-12.69v-5.02L473.32,227.74zM459.99,226.41h-18.18V208.9l18.18,12.12V226.41zM440.29,226.7l-10.67,5.34l10.67-21.34V226.7zM428.36,234.37l12.86-6.43h19.21l12.69,12.69v19.29l-6.51,26.05l-12.95,19.42l-25.93,12.96h-32.43l-18.74-12.49l18.71-18.71l19.26,6.42c0.08,0.03,0.16,0.04,0.24,0.04c0.12,0,0.23-0.03,0.34-0.08l13.13-6.57c0.07-0.04,0.14-0.08,0.2-0.14l13.13-13.13c0.14-0.14,0.22-0.34,0.22-0.54v-13.13c0-0.2-0.08-0.4-0.22-0.54l-13.13-13.13c-0.14-0.14-0.34-0.22-0.54-0.22h-11.3L428.36,234.37zM414.05,246.73c-0.01,0.05-0.03,0.1-0.03,0.15v19.23l-23.81,11.9l29.27-58.55l-5.45,27.26L414.05,246.73zM404.51,141.07l28.9-36.12l-12.33,104.78L404.51,141.07zM404.06,139.2L376.98,27l56.54,75.38L404.06,139.2zM402.86,140.7l-46.14,57.68l18.93-170.4L402.86,140.7zM339.81,235.49l-47.45-40.15l62.2,6.22L339.81,235.49zM289.24,298.27l-26.56-11.07l-20.76-47.76l47.32-43.38V298.27zM241.27,237.97l-15.83-36.41l62.36-6.24L241.27,237.97zM177.14,140.7l27.21-112.72l18.93,170.4L177.14,140.7zM175.94,139.2l-29.45-36.82L203.02,27L175.94,139.2zM175.49,141.07l-16.57,68.66l-12.33-104.78L175.49,141.07zM138.31,186.2l-50.65-44.32l56.98-37.98L138.31,186.2zM145.68,110.26l11.89,101.07l-17.84-23.78L145.68,110.26zM163.98,244.56l-11.27-11.27l-12.26-24.52l17.54,5.85L163.98,244.56zM118.87,219.95l-12.57,6.28L62.87,176.6l74.48,31.03L118.87,219.95zM104.9,226.93L67.37,245.7l-6.25-68.8L104.9,226.93zM98.06,260.23L67.47,284.7V248L98.06,260.23zM105.65,287.04l12.68,25.36l-25.13,25.13l-25.25-50.49H105.65zM93.19,339.77l36.87,18.43L68.61,370.5L93.19,339.77zM133.08,359.28h37.32l-43.54,68.42L133.08,359.28zM126.5,431.2l25.35-19.02l25.44,44.52l-63.52,31.76L126.5,431.2zM178.95,457.92l61.77,12.35l-67.94,18.53L178.95,457.92zM241.71,471.58l-62.8,69.08l-6.28-50.24L241.71,471.58zM263.3,383.85l25.2,126.02c0.14,0.71,0.77,1.22,1.49,1.22s1.35-0.51,1.49-1.22l25.2-126.02l18.45,86.1L290,521.55l-45.15-51.6L263.3,383.85zM335.98,471.31l63.6,69.96l-108.12-19.08L335.98,471.31zM338.29,471.58l69.08,18.84l-6.28,50.24L338.29,471.58zM339.28,470.28l61.77-12.35l6.18,30.88L339.28,470.28zM428.15,412.18l25.35,19.02l12.73,57.27l-63.52-31.76L428.15,412.18zM409.6,359.28h37.32l6.22,68.42L409.6,359.28zM486.81,339.77l24.58,30.72l-61.45-12.29L486.81,339.77zM486.81,337.53l-25.13-25.13l12.68-25.36h37.7L486.81,337.53zM481.95,260.23L512.53,248v36.7L481.95,260.23zM475.1,226.94l43.78-50.03l-6.25,68.8L475.1,226.94zM473.7,226.23l-12.57-6.28l-18.48-12.32l74.48-31.03L473.7,226.23zM427.29,233.29l-11.27,11.27l5.99-29.94l17.54-5.85L427.29,233.29zM434.32,110.26l5.95,77.29l-17.84,23.78L434.32,110.26zM377.44,25.08l75.75,25.25l-18.94,50.5L377.44,25.08zM374.15,27.75L355,200.07l-63.83-6.38L374.15,27.75zM225,200.08L205.85,27.75l82.97,165.94L225,200.08zM145.75,100.83l-18.94-50.5l75.75-25.25L145.75,100.83zM86.73,140.67L48.57,58l95.4,44.52L86.73,140.67zM138.39,188.29l18.19,24.26l-17.37-5.79l-77.85-32.44l25.14-31.43L138.39,188.29zM59.63,177.37l6.24,68.59l-37.42-6.24L59.63,177.37zM66.43,287.42l25.65,51.31l-25.5,31.88l-25.56-19.17l-19.26-32.11L66.43,287.42zM131.54,359.47l-6.33,69.61l-56.95-56.95L131.54,359.47zM177.31,458.4l-6.26,31.31c-0.02,0.08-0.01,0.16,0,0.24l0,0l6.33,50.68l-63.28-50.63L177.31,458.4zM244.02,471.31l44.52,50.88l-108.12,19.08L244.02,471.31zM290.76,523.61l107.56,18.98l-107.56,31.63V523.61zM408.96,489.96L408.96,489.96c0.01-0.08,0.01-0.16-0.01-0.24l-6.26-31.31l63.22,31.61l-63.28,50.63L408.96,489.96zM448.46,359.47l63.28,12.66l-56.95,56.95L448.46,359.47zM513.42,370.6l-25.5-31.88l25.65-51.31l44.67,31.91l-19.26,32.11L513.42,370.6zM520.37,177.37l31.18,62.36l-37.42,6.24L520.37,177.37zM440.78,206.76l-17.37,5.79l18.19-24.26l51.88-45.4l25.14,31.43L440.78,206.76zM441.69,186.2l-6.33-82.3l56.98,37.99L441.69,186.2zM315.39,17.78L290,189.15L264.61,17.78H290H315.39zM143.78,99.93L63.43,31.94l61.81,18.54L143.78,99.93zM7.97,6l51.76,24.8l80.95,68.5L47.5,55.81L7.97,6zM28,241.2l37.95,6.33v38.37l-44.32,31.65L28,241.2zM60.92,417.63l6.34-44.36l57.32,57.32l-57.26,31.81L60.92,417.63zM181.68,542.59l107.56-18.98v50.61L181.68,542.59zM512.69,462.39l-57.26-31.81l57.32-57.32l6.34,44.36L512.69,462.39zM558.36,317.54l-44.32-31.65v-38.37L552,241.2L558.36,317.54zM493.27,140.67l-57.24-38.16L531.43,58L493.27,140.67zM439.32,99.3l80.95-68.5L572.03,6L532.5,55.81L439.32,99.3z"/></svg>
