<?xml version="1.0" encoding="utf-8"?><!-- original uisgcon logo by constantine --><svg id="uisgcon" fill="#3586C7" viewBox="0 0 32 32" version="1.1" xmlns="http://www.w3.org/2000/svg"><path d="M30.137,18.531h-0.221c-0.053,0-0.103-0.026-0.132-0.071l-2.065-3.143c-0.166-0.255-0.319-0.49-0.459-0.72c0.007,0.281,0.007,0.632,0.007,1.224v2.552c0,0.088-0.071,0.158-0.159,0.158h-0.219c-0.088,0-0.159-0.07-0.159-0.158v-4.745c0-0.088,0.071-0.159,0.159-0.159h0.207c0.053,0,0.103,0.027,0.132,0.071l2.014,3.039c0.21,0.324,0.382,0.587,0.529,0.832c-0.013-0.395-0.013-0.788-0.013-1.27v-2.514c0-0.088,0.071-0.159,0.159-0.159h0.22c0.088,0,0.158,0.071,0.158,0.159v4.745C30.295,18.46,30.225,18.531,30.137,18.531zM23.475,18.606c-1.3,0-2.207-1.053-2.207-2.56c0-1.587,0.906-2.653,2.257-2.653c1.313,0,2.194,1.028,2.194,2.56C25.719,17.776,24.556,18.606,23.475,18.606zM23.519,13.893c-1.175,0-1.702,1.079-1.702,2.148c0,0.858,0.517,2.067,1.664,2.067c1.16,0,1.689-1.107,1.689-2.137C25.17,14.971,24.652,13.893,23.519,13.893zM19.175,18.601c-1.091,0-2.364-0.676-2.364-2.578c0-1.572,1.021-2.629,2.54-2.629c0.465,0,0.865,0.077,1.158,0.225c0.077,0.038,0.109,0.132,0.071,0.21l-0.088,0.183c-0.019,0.038-0.052,0.067-0.092,0.081c-0.041,0.014-0.085,0.011-0.123-0.01c-0.25-0.128-0.564-0.195-0.908-0.195c-1.238,0-2.009,0.825-2.009,2.154c0,1.29,0.721,2.061,1.928,2.061c0.382,0,0.753-0.079,1.021-0.216c0.078-0.039,0.173-0.009,0.213,0.068l0.088,0.17c0.02,0.037,0.023,0.081,0.011,0.121c-0.013,0.041-0.041,0.074-0.079,0.094C20.221,18.503,19.71,18.601,19.175,18.601zM14.216,18.621c-1.51,0-2.485-1.024-2.485-2.611c0-1.31,0.815-2.631,2.636-2.631c0.492,0,0.928,0.122,1.152,0.227c0.048,0.022,0.086,0.063,0.104,0.114s0.014,0.106-0.01,0.153l-0.088,0.177c-0.047,0.095-0.161,0.136-0.258,0.092c-0.208-0.095-0.48-0.19-0.911-0.19c-1.212,0-1.995,0.809-1.995,2.059c0,0.938,0.501,2.034,1.913,2.034c0.364,0,0.654-0.043,0.864-0.125v-1.447h-0.952c-0.109,0-0.198-0.089-0.198-0.198v-0.194c0-0.109,0.089-0.198,0.198-0.198h1.383c0.109,0,0.198,0.089,0.198,0.198v2.087c0,0.08-0.048,0.152-0.122,0.183C15.344,18.473,14.854,18.621,14.216,18.621zM9.408,18.64c-0.441,0-0.933-0.144-1.224-0.359c-0.084-0.062-0.105-0.178-0.049-0.266l0.113-0.176c0.029-0.045,0.075-0.076,0.127-0.088c0.052-0.011,0.107,0.001,0.151,0.031c0.187,0.127,0.494,0.279,0.894,0.279c0.609,0,1.002-0.342,1.002-0.87c0-0.407-0.141-0.713-0.841-0.984c-0.899-0.317-1.339-0.804-1.339-1.486c0-0.792,0.638-1.367,1.518-1.367c0.483,0,0.845,0.141,1.022,0.271c0.084,0.063,0.105,0.179,0.049,0.267l-0.113,0.176c-0.03,0.047-0.079,0.079-0.134,0.089c-0.055,0.009-0.111-0.006-0.155-0.04c-0.024-0.019-0.245-0.184-0.669-0.184c-0.87,0-0.895,0.657-0.895,0.731c0,0.389,0.138,0.654,0.868,0.948c0.792,0.321,1.318,0.709,1.318,1.554C11.051,17.876,10.537,18.64,9.408,18.64zM6.938,18.571h-0.22c-0.109,0-0.198-0.089-0.198-0.198v-4.745c0-0.109,0.089-0.198,0.198-0.198h0.22c0.109,0,0.198,0.089,0.198,0.198v4.745C7.136,18.482,7.047,18.571,6.938,18.571zM3.43,18.646c-1.08,0-1.725-0.784-1.725-2.097v-2.922c0-0.109,0.089-0.198,0.198-0.198h0.22c0.109,0,0.198,0.089,0.198,0.198v2.865c0,1.016,0.4,1.574,1.127,1.574c0.772,0,1.197-0.559,1.197-1.574v-2.865c0-0.109,0.089-0.198,0.198-0.198h0.22c0.109,0,0.198,0.089,0.198,0.198v2.859C5.262,17.839,4.577,18.646,3.43,18.646z"/></svg>
