<?xml version="1.0" encoding="utf-8"?><!-- original uisgcon logo by constantine --><svg id="uisgcon" fill="#6C4997" viewBox="0 0 182 36" version="1.1" xmlns="http://www.w3.org/2000/svg"><path d="M138.31,1.57c-8.51,0-14.23,6.72-14.23,16.73c0,9.5,5.72,16.14,13.91,16.14c6.82,0,14.15-5.24,14.15-16.73C152.15,8.05,146.59,1.57,138.31,1.57z M138.04,31.29c-7.24,0-10.49-7.62-10.49-13.03c0-6.74,3.32-13.54,10.73-13.54c7.15,0,10.41,6.79,10.41,13.11C148.68,24.31,145.35,31.29,138.04,31.29z M59.42,25.35c0,4.5-3.13,9.04-10.11,9.04c-2.73,0-5.77-0.89-7.57-2.22c-0.42-0.31-0.53-0.9-0.25-1.34l0.71-1.11c0.15-0.23,0.38-0.38,0.64-0.44s0.54,0,0.76,0.15c1.21,0.82,3.19,1.81,5.78,1.81c3.99,0,6.57-2.25,6.57-5.74c0-3.15-1.48-4.9-5.46-6.44c-3.54-1.25-8.28-3.56-8.28-9.13c0-4.85,3.92-8.37,9.32-8.37c2.99,0,5.26,0.89,6.3,1.66c0.42,0.31,0.53,0.9,0.25,1.34l-0.71,1.11c-0.15,0.24-0.4,0.4-0.68,0.45c-0.28,0.04-0.56-0.03-0.78-0.2c-0.71-0.56-2.28-1.21-4.37-1.21c-4.65,0-5.89,3.06-5.89,4.87c0,2.95,1.42,4.51,5.63,6.21C56.17,17.77,59.42,20.16,59.42,25.35z M22.92,3.04v18.03c0,8.37-4.22,13.36-11.3,13.36C8.43,34.43,1,33.17,1,21.47V3.04c0-0.55,0.45-1,1-1h1.39c0.55,0,1,0.45,1,1v18.07c0,6.47,2.68,10.18,7.36,10.18c5.03,0,7.8-3.61,7.8-10.18V3.04c0-0.55,0.45-1,1-1h1.39C22.48,2.04,22.92,2.49,22.92,3.04z M34.74,3.04v29.92c0,0.55-0.45,1-1,1h-1.39c-0.55,0-1-0.45-1-1V3.04c0-0.55,0.45-1,1-1h1.39C34.29,2.04,34.74,2.49,34.74,3.04z M181,3.04v29.92c0,0.55-0.45,1-1,1h-1.39c-0.34,0-0.65-0.17-0.83-0.45l-13.02-19.81c-1.04-1.61-2.01-3.09-2.89-4.54c0.04,1.77,0.04,3.99,0.04,7.71v16.09c0,0.55-0.45,1-1,1h-1.39c-0.55,0-1-0.45-1-1V3.04c0-0.55,0.45-1,1-1h1.31c0.33,0,0.65,0.17,0.83,0.45l12.7,19.16c1.33,2.04,2.4,3.7,3.34,5.24c-0.08-2.48-0.08-4.96-0.08-8V3.04c0-0.55,0.45-1,1-1H180C180.55,2.04,181,2.49,181,3.04z M119.94,31.39c0.12,0.24,0.15,0.51,0.06,0.76c-0.08,0.25-0.26,0.46-0.5,0.59c-2.02,1.04-5.24,1.65-8.62,1.65c-6.88,0-14.9-4.26-14.9-16.25c0-9.91,6.43-16.57,16.01-16.57c2.93,0,5.45,0.49,7.3,1.41c0.49,0.24,0.69,0.84,0.45,1.33l-0.55,1.15c-0.12,0.24-0.33,0.43-0.58,0.51c-0.25,0.08-0.53,0.07-0.77-0.06c-1.58-0.81-3.56-1.24-5.72-1.24c-7.81,0-12.67,5.21-12.67,13.58c0,8.13,4.54,12.99,12.15,12.99c2.41,0,4.75-0.49,6.44-1.36c0.49-0.25,1.09-0.06,1.34,0.43L119.94,31.39z M89.15,18.49v13.16c0,0.4-0.24,0.77-0.62,0.92c-1.86,0.78-4.92,1.7-8.9,1.7c-9.37,0-15.42-6.37-15.42-16.21c0-8.13,5.06-16.33,16.37-16.33c3.06,0,5.77,0.75,7.16,1.4c0.25,0.11,0.43,0.32,0.52,0.58c0.09,0.25,0.07,0.53-0.05,0.78l-0.56,1.11c-0.24,0.48-0.81,0.68-1.3,0.46c-1.34-0.6-3.08-1.22-5.85-1.22c-7.79,0-12.83,5.19-12.83,13.23c0,6.03,3.22,13.07,12.31,13.07c2.41,0,4.33-0.29,5.7-0.86v-9.54h-6.25c-0.55,0-1-0.45-1-1v-1.23c0-0.55,0.45-1,1-1h8.72C88.7,17.5,89.15,17.94,89.15,18.49z"/></svg>
