<?xml version="1.0" encoding="utf-8"?><!-- original uisgcon logo by constantine --><svg id="uisgcon" fill="#3586C7" viewBox="0 0 258 65" version="1.1" xmlns="http://www.w3.org/2000/svg"><path d="M246.502,55h-42c-0.828,0-1.5-0.672-1.5-1.5v-42c0-0.828,0.672-1.5,1.5-1.5h42c0.828,0,1.5,0.672,1.5,1.5v42C248.002,54.328,247.331,55,246.502,55z M206.002,52h39V13h-39V52zM238.444,42.46h-13.129v-0.5c0-0.601,0.098-1.186,0.291-1.738c0.338-0.879,0.869-1.744,1.584-2.587c0.699-0.824,1.711-1.78,3.01-2.843c1.947-1.595,3.277-2.869,3.949-3.787c0.633-0.864,0.953-1.677,0.953-2.414c0-0.763-0.262-1.385-0.799-1.904c-0.545-0.522-1.246-0.776-2.145-0.776c-0.955,0-1.691,0.27-2.252,0.825c-0.561,0.555-0.838,1.323-0.848,2.35l-0.006,0.546l-3.342-0.329l0.043-0.492c0.162-1.862,0.818-3.307,1.951-4.292c1.125-0.98,2.641-1.478,4.506-1.478c1.883,0,3.404,0.54,4.521,1.606c1.123,1.071,1.693,2.41,1.693,3.979c0,0.798-0.166,1.593-0.494,2.363c-0.324,0.757-0.855,1.558-1.58,2.38c-0.713,0.811-1.865,1.882-3.521,3.276c-1.648,1.392-2.305,2.008-2.564,2.278c-0.117,0.123-0.229,0.246-0.334,0.369h8.512V42.46z M219.717,42.46h-3.254V28.685c-0.402,0.303-0.861,0.605-1.369,0.904c-0.904,0.533-1.729,0.937-2.451,1.201l-0.672,0.246v-3.2l0.287-0.135c1.207-0.569,2.277-1.269,3.184-2.079c0.891-0.797,1.521-1.571,1.875-2.301l0.139-0.281h2.262V42.46zM189.473,48.474h-1.389c-0.337,0-0.65-0.169-0.835-0.45l-13.037-19.837c-1.047-1.608-2.016-3.095-2.898-4.546c0.041,1.776,0.041,3.993,0.041,7.725v16.108c0,0.553-0.447,1-1,1h-1.388c-0.553,0-1-0.447-1-1V17.519c0-0.553,0.447-1,1-1h1.309c0.335,0,0.648,0.168,0.833,0.447l12.711,19.183c1.329,2.046,2.407,3.705,3.343,5.25c-0.078-2.485-0.078-4.972-0.078-8.009V17.519c0-0.553,0.447-1,1-1h1.389c0.553,0,1,0.447,1,1v29.955C190.473,48.026,190.026,48.474,189.473,48.474zM147.417,48.95c-8.202,0-13.931-6.644-13.931-16.156c0-10.02,5.726-16.751,14.247-16.751c8.285,0,13.853,6.492,13.853,16.155C161.586,43.708,154.242,48.95,147.417,48.95z M147.695,19.193c-7.419,0-10.74,6.812-10.74,13.562c0,5.416,3.259,13.044,10.503,13.044c7.324,0,10.66-6.988,10.66-13.48C158.118,25.997,154.856,19.193,147.695,19.193zM120.277,48.91c-6.884,0-14.922-4.263-14.922-16.274c0-9.925,6.442-16.593,16.032-16.593c2.933,0,5.46,0.489,7.31,1.415c0.489,0.245,0.691,0.837,0.453,1.33l-0.556,1.149c-0.117,0.242-0.327,0.427-0.583,0.513c-0.253,0.084-0.533,0.065-0.773-0.059c-1.581-0.81-3.563-1.238-5.731-1.238c-7.824,0-12.685,5.212-12.685,13.602c0,8.144,4.549,13.005,12.169,13.005c2.408,0,4.758-0.495,6.446-1.358c0.49-0.249,1.089-0.059,1.343,0.431l0.556,1.071c0.122,0.235,0.146,0.511,0.064,0.765c-0.081,0.253-0.259,0.464-0.496,0.585C126.88,48.291,123.655,48.91,120.277,48.91zM88.975,49.041c-9.529,0-15.687-6.471-15.687-16.485c0-8.265,5.145-16.604,16.638-16.604c3.103,0,5.855,0.769,7.271,1.426c0.306,0.143,0.542,0.403,0.653,0.722c0.111,0.319,0.088,0.67-0.063,0.972l-0.557,1.111c-0.299,0.6-1.017,0.857-1.631,0.58c-1.316-0.594-3.029-1.2-5.752-1.2c-7.649,0-12.592,5.101-12.592,12.994c0,5.921,3.163,12.835,12.077,12.835c2.295,0,4.125-0.263,5.453-0.782v-9.136h-6.008c-0.69,0-1.25-0.56-1.25-1.25v-1.23c0-0.69,0.56-1.25,1.25-1.25h8.727c0.69,0,1.25,0.56,1.25,1.25v13.173c0,0.505-0.304,0.96-0.77,1.154C96.096,48.104,93,49.041,88.975,49.041zM58.625,49.16c-2.783,0-5.887-0.911-7.724-2.268c-0.53-0.392-0.665-1.128-0.309-1.682l0.714-1.11c0.182-0.284,0.472-0.482,0.802-0.549c0.33-0.071,0.675,0.002,0.953,0.191c1.182,0.806,3.121,1.767,5.642,1.767c3.843,0,6.326-2.157,6.326-5.495c0-2.566-0.888-4.501-5.31-6.213c-5.677-2.001-8.454-5.073-8.454-9.379c0-5.001,4.029-8.63,9.58-8.63c3.052,0,5.335,0.885,6.455,1.713c0.529,0.392,0.664,1.127,0.308,1.681l-0.714,1.111c-0.191,0.297-0.498,0.499-0.846,0.558c-0.348,0.056-0.704-0.034-0.981-0.253c-0.15-0.118-1.543-1.159-4.222-1.159c-5.493,0-5.652,4.149-5.652,4.622c0,2.45,0.874,4.13,5.483,5.981c4.996,2.031,8.32,4.476,8.32,9.81C68.997,44.337,65.751,49.16,58.625,49.16zM43.032,48.724h-1.388c-0.69,0-1.25-0.56-1.25-1.25V17.519c0-0.69,0.56-1.25,1.25-1.25h1.388c0.69,0,1.25,0.56,1.25,1.25v29.955C44.282,48.164,43.722,48.724,43.032,48.724zM20.888,49.2C14.07,49.2,10,44.254,10,35.968V17.519c0-0.69,0.56-1.25,1.25-1.25h1.388c0.69,0,1.25,0.56,1.25,1.25V35.61c0,6.409,2.528,9.938,7.119,9.938c4.873,0,7.556-3.529,7.556-9.938V17.519c0-0.69,0.56-1.25,1.25-1.25h1.388c0.69,0,1.25,0.56,1.25,1.25v18.053C32.451,44.105,28.128,49.2,20.888,49.2z"/></svg>
