<?xml version="1.0" encoding="utf-8"?><!-- uisgcon --><svg id="uisgcon" viewBox="0 0 182 54" version="1.1" xmlns="http://www.w3.org/2000/svg"><g><path d="M138.37,2.38c-7.38,0-13.25,5.75-13.25,15.75c0,9.52,5.79,15.16,12.93,15.16c6.62,0,13.17-5.08,13.17-15.75C151.22,8.25,145.86,2.38,138.37,2.38zM138.33,3.53c7.97,0,11.42,7.66,11.42,14.12c0,7.66-4.2,14.48-11.66,14.48c-7.5,0-11.5-7.66-11.5-14.04C126.59,11.02,130.23,3.53,138.33,3.53zM23.38,2.85V20.9c0,11.89-7.77,13.18-11.11,13.18c-3.14,0-10.44-1.25-10.44-12.78V2.85c0-0.44,0.36-0.8,0.8-0.8h1.39c0.44,0,0.8,0.36,0.8,0.8v18.09c0,6.6,2.76,10.39,7.57,10.39c5.16,0,8.01-3.69,8.01-10.39V2.85c0-0.44,0.36-0.8,0.8-0.8h1.39C23.02,2.05,23.38,2.41,23.38,2.85zM34.41,2.05h-1.39c-0.44,0-0.8,0.36-0.8,0.8v29.96c0,0.44,0.36,0.8,0.8,0.8h1.39c0.44,0,0.8-0.36,0.8-0.8V2.85C35.21,2.41,34.85,2.05,34.41,2.05zM51.89,15.8c-4.26-1.71-5.77-3.39-5.77-6.4c0-1.88,1.29-5.07,6.1-5.07c2.15,0,3.77,0.68,4.5,1.26c0.14,0.11,0.32,0.17,0.5,0.17c0.04,0,0.09,0,0.13-0.01c0.22-0.04,0.42-0.17,0.54-0.36l0.71-1.11c0.23-0.35,0.14-0.83-0.2-1.08c-1.01-0.75-3.24-1.63-6.19-1.63c-5.29,0-9.13,3.44-9.13,8.18c0,4.15,2.6,7,8.19,8.97c4.06,1.57,5.57,3.37,5.57,6.63c0,3.56-2.72,5.94-6.78,5.94c-2.09,0-4.13-0.64-5.9-1.84c-0.13-0.09-0.29-0.14-0.45-0.14c-0.05,0-0.11,0-0.16,0.02c-0.21,0.04-0.4,0.17-0.51,0.35l-0.71,1.11c-0.23,0.35-0.14,0.83,0.2,1.08c1.77,1.3,4.76,2.18,7.46,2.18c6.85,0,9.92-4.45,9.92-8.85C59.92,20.11,56.71,17.76,51.89,15.8zM88.88,17.53h-8.73c-0.44,0-0.8,0.36-0.8,0.8v1.23c0,0.44,0.36,0.8,0.8,0.8h6.46v9.89c-1.41,0.62-3.39,0.93-5.9,0.93c-9.25,0-12.53-7.16-12.53-13.29c0-8.17,5.12-13.44,13.04-13.44c2.81,0,4.58,0.63,5.94,1.24c0.11,0.05,0.22,0.07,0.33,0.07c0.29,0,0.58-0.16,0.72-0.44l0.56-1.11c0.1-0.19,0.11-0.42,0.04-0.62s-0.22-0.37-0.42-0.46c-1.38-0.64-4.05-1.38-7.08-1.38c-11.18,0-16.19,8.11-16.19,16.15c0,9.89,5.84,16.04,15.24,16.04c3.95,0,6.99-0.92,8.84-1.69c0.3-0.12,0.49-0.42,0.49-0.74V18.33C89.68,17.88,89.32,17.53,88.88,17.53zM118.52,30.63c-1.79,0.91-4.24,1.47-6.9,1.47c-8.29,0-13.17-5.55-13.17-14.01c0-8.93,5.2-14.6,13.68-14.6c2.58,0,4.64,0.56,6.19,1.35l0.56-1.15c-0.95-0.48-3.05-1.31-6.86-1.31c-9.68,0-15.03,6.9-15.03,15.59c0,10.95,7.06,15.27,13.92,15.27c3.69,0,6.62-0.75,8.17-1.55L118.52,30.63zM180.1,2.85h-1.39v15.87c0,4.72,0,7.97,0.28,11.98l-0.08,0.08c-1.43-2.82-3.09-5.36-5.59-9.21L160.91,2.85h-1.31v29.96h1.39V16.7c0-6.63,0-8.49-0.24-11.63l0.12-0.04c1.55,3.02,3.53,5.95,5.79,9.44l12.06,18.33h1.39V2.85z"/><path d="M55.84,48.49v-0.01c0.44-0.14,0.78-0.5,0.78-1.03c0-0.31-0.12-0.58-0.33-0.76c-0.26-0.23-0.63-0.33-1.2-0.33c-0.37,0-0.76,0.03-1.03,0.08v3.97h0.54v-1.74h0.5c0.49,0.02,0.71,0.23,0.83,0.78c0.12,0.5,0.21,0.85,0.28,0.96h0.55c-0.09-0.15-0.18-0.54-0.32-1.1C56.35,48.9,56.16,48.6,55.84,48.49zM55.15,48.27h-0.55v-1.47c0.09-0.02,0.26-0.05,0.53-0.05c0.57,0.01,0.95,0.23,0.95,0.75C56.09,47.97,55.73,48.27,55.15,48.27zM50.91,46.32c-1.14,0-1.94,0.87-1.94,2.1c0,1.2,0.74,2.05,1.86,2.05c1.05,0,1.93-0.75,1.93-2.08C52.76,47.23,52.09,46.32,50.91,46.32zM50.86,50.05c-0.84,0-1.32-0.73-1.32-1.65c0-0.91,0.47-1.66,1.33-1.66c0.91,0,1.32,0.84,1.32,1.66C52.19,49.28,51.74,50.05,50.86,50.05zM64.6,46.39l-1.42,4.02h0.56l0.42-1.27h1.47l0.44,1.27h0.57l-1.41-4.02H64.6zM64.28,48.74l0.41-1.16c0.08-0.24,0.15-0.49,0.2-0.73h0.02c0.06,0.23,0.12,0.47,0.22,0.73l0.41,1.16H64.28zM12.48,48.49v-0.01c0.44-0.14,0.78-0.5,0.78-1.03c0-0.31-0.12-0.58-0.33-0.76c-0.26-0.23-0.63-0.33-1.2-0.33c-0.37,0-0.76,0.03-1.03,0.08v3.97h0.54v-1.74h0.5c0.49,0.02,0.71,0.23,0.83,0.78c0.12,0.5,0.21,0.85,0.28,0.96h0.55c-0.09-0.15-0.18-0.54-0.32-1.1C12.99,48.9,12.8,48.6,12.48,48.49zM11.79,48.27h-0.55v-1.47c0.09-0.02,0.26-0.05,0.53-0.05c0.57,0.01,0.95,0.23,0.95,0.75C12.73,47.97,12.36,48.27,11.79,48.27zM15.77,46.39l-1.42,4.02h0.56l0.42-1.27h1.47l0.44,1.27h0.57l-1.42-4.02H15.77zM15.45,48.74l0.41-1.16c0.08-0.24,0.15-0.49,0.2-0.73h0.02c0.06,0.23,0.12,0.47,0.21,0.73l0.41,1.16H15.45zM28.99,46.39l-1.41,4.02h0.56l0.42-1.27h1.47l0.44,1.27h0.57l-1.41-4.02H28.99zM28.67,48.74l0.41-1.16c0.08-0.24,0.15-0.49,0.2-0.73h0.02c0.06,0.23,0.12,0.47,0.22,0.73l0.41,1.16H28.67zM145.96,46.32c-1.14,0-1.94,0.87-1.94,2.1c0,1.2,0.75,2.05,1.86,2.05c1.05,0,1.93-0.75,1.93-2.08C147.81,47.23,147.14,46.32,145.96,46.32zM145.92,50.05c-0.84,0-1.32-0.73-1.32-1.65c0-0.91,0.47-1.66,1.33-1.66c0.91,0,1.32,0.84,1.32,1.66C147.24,49.28,146.79,50.05,145.92,50.05zM135.42,46.36c-0.42,0-0.78,0.04-1.03,0.08v3.98h0.54v-1.59c0.11,0.02,0.27,0.03,0.44,0.03c0.51,0,0.97-0.15,1.25-0.44c0.21-0.21,0.32-0.5,0.32-0.87c0-0.36-0.14-0.66-0.36-0.85C136.34,46.48,135.95,46.36,135.42,46.36zM135.37,48.43c-0.18,0-0.36-0.01-0.44-0.04v-1.59c0.09-0.02,0.26-0.04,0.5-0.04c0.59,0,0.98,0.26,0.98,0.8C136.41,48.12,136.02,48.43,135.37,48.43zM163.41,49.31c-0.1-0.41-0.29-0.7-0.61-0.82v-0.01c0.44-0.14,0.78-0.5,0.78-1.03c0-0.31-0.12-0.58-0.33-0.76c-0.26-0.23-0.63-0.33-1.2-0.33c-0.37,0-0.76,0.03-1.03,0.08v3.97h0.54v-1.74h0.5c0.49,0.02,0.71,0.23,0.83,0.78c0.12,0.5,0.21,0.85,0.28,0.96h0.55C163.64,50.26,163.55,49.87,163.41,49.31zM162.11,48.27h-0.55v-1.47c0.09-0.02,0.26-0.05,0.53-0.05c0.57,0.01,0.95,0.23,0.95,0.75C163.05,47.97,162.68,48.27,162.11,48.27zM74.86,46.32c-1.14,0-1.94,0.87-1.94,2.1c0,1.2,0.74,2.05,1.86,2.05c1.05,0,1.93-0.75,1.93-2.08C76.71,47.23,76.04,46.32,74.86,46.32zM74.82,50.05c-0.84,0-1.32-0.73-1.32-1.65c0-0.91,0.47-1.66,1.33-1.66c0.91,0,1.32,0.84,1.32,1.66C76.14,49.28,75.69,50.05,74.82,50.05zM126.63,46.32c-1.14,0-1.94,0.87-1.94,2.1c0,1.2,0.74,2.05,1.86,2.05c1.05,0,1.93-0.75,1.93-2.08C128.49,47.23,127.81,46.32,126.63,46.32zM126.59,50.05c-0.84,0-1.32-0.73-1.32-1.65c0-0.91,0.47-1.66,1.33-1.66c0.91,0,1.32,0.84,1.32,1.66C127.92,49.28,127.46,50.05,126.59,50.05zM102.45,48.49v-0.01c0.44-0.14,0.78-0.5,0.78-1.03c0-0.31-0.12-0.58-0.33-0.76c-0.26-0.23-0.63-0.33-1.2-0.33c-0.37,0-0.76,0.03-1.03,0.08v3.97h0.54v-1.74h0.5c0.49,0.02,0.71,0.23,0.83,0.78c0.12,0.5,0.21,0.85,0.28,0.96h0.55c-0.09-0.15-0.18-0.54-0.32-1.1C102.96,48.9,102.77,48.6,102.45,48.49zM101.76,48.27h-0.55v-1.47c0.09-0.02,0.26-0.05,0.53-0.05c0.57,0.01,0.95,0.23,0.95,0.75C102.7,47.97,102.34,48.27,101.76,48.27zM122.77,48.49v-0.01c0.44-0.14,0.78-0.5,0.78-1.03c0-0.31-0.12-0.58-0.33-0.76c-0.26-0.23-0.63-0.33-1.2-0.33c-0.37,0-0.76,0.03-1.03,0.08v3.97h0.54v-1.74h0.5c0.49,0.02,0.71,0.23,0.83,0.78c0.12,0.5,0.21,0.85,0.28,0.96h0.55c-0.09-0.15-0.18-0.54-0.32-1.1C123.28,48.9,123.09,48.6,122.77,48.49zM122.08,48.27h-0.55v-1.47c0.09-0.02,0.26-0.05,0.53-0.05c0.57,0.01,0.95,0.23,0.95,0.75C123.01,47.97,122.65,48.27,122.08,48.27zM2.7,46.39v2.39c0,0.89,0.41,1.27,0.97,1.27c0.61,0,1.01-0.39,1.01-1.27v-2.39h0.54v2.35c0,1.24-0.66,1.74-1.56,1.74c-0.85,0-1.49-0.47-1.49-1.71v-2.38H2.7zM6.75,46.39h0.54v1.94h0.02c0.11-0.15,0.22-0.3,0.33-0.43l1.27-1.51h0.66l-1.5,1.71l1.62,2.32H9.05l-1.37-1.98l-0.39,0.44v1.53H6.75V46.39zM19.58,46.39v4.02h-0.54v-4.02H19.58zM21.13,50.41v-4.02h0.6l1.32,2.03c0.3,0.48,0.55,0.9,0.74,1.31l0.01-0.01c-0.05-0.54-0.06-1.03-0.06-1.65v-1.69h0.5v4.02h-0.54l-1.32-2.04c-0.29-0.45-0.57-0.91-0.78-1.34l-0.02,0.01c0.03,0.51,0.04,0.99,0.04,1.66v1.72H21.13zM26.33,46.39v4.02h-0.54v-4.02H26.33zM32.26,50.41v-4.02h0.6l1.32,2.03c0.3,0.48,0.55,0.9,0.74,1.31l0.01-0.01c-0.05-0.54-0.06-1.03-0.06-1.65v-1.69h0.5v4.02h-0.54l-1.32-2.04c-0.29-0.45-0.57-0.91-0.78-1.34l-0.02,0.01c0.03,0.51,0.04,0.99,0.04,1.66v1.72H32.26zM39.39,46.39v4.02h-0.54v-4.02H39.39zM40.94,50.41v-4.02h0.6l1.32,2.03c0.3,0.48,0.55,0.9,0.74,1.31l0.01-0.01c-0.05-0.54-0.06-1.03-0.06-1.65v-1.69h0.5v4.02h-0.54l-1.32-2.04c-0.29-0.45-0.57-0.91-0.77-1.34l-0.02,0.01c0.03,0.51,0.04,0.99,0.04,1.66v1.72H40.94zM45.6,46.39h2.23v0.43h-1.69v1.34h1.57v0.43h-1.57v1.82H45.6V46.39zM61.5,48.64c-0.04-0.56-0.07-1.24-0.07-1.73h-0.02c-0.14,0.47-0.33,1.01-0.53,1.55l-0.72,1.93h-0.42l-0.66-1.92c-0.2-0.57-0.36-1.09-0.47-1.56h-0.02c-0.02,0.5-0.04,1.16-0.08,1.77l-0.11,1.73h-0.51l0.29-4.02h0.68l0.71,1.95c0.17,0.48,0.31,0.96,0.41,1.38H60c0.1-0.41,0.25-0.88,0.44-1.38l0.74-1.95h0.68l0.26,4.02h-0.53L61.5,48.64zM68.19,46.83h-1.26v-0.44H70v0.44h-1.27v3.58h-0.54V46.83zM71.62,46.39v4.02h-0.54v-4.02H71.62zM78.02,50.41v-4.02h0.6l1.32,2.03c0.3,0.48,0.55,0.9,0.75,1.31l0.01-0.01c-0.05-0.54-0.06-1.03-0.06-1.65v-1.69h0.5v4.02h-0.54l-1.32-2.04c-0.29-0.45-0.57-0.91-0.77-1.34l-0.02,0.01c0.03,0.51,0.04,0.99,0.04,1.66v1.72H78.02zM84.54,49.78c0.24,0.14,0.59,0.26,0.96,0.26c0.55,0,0.87-0.28,0.87-0.69c0-0.38-0.22-0.59-0.79-0.8c-0.67-0.23-1.09-0.58-1.09-1.14c0-0.62,0.54-1.09,1.34-1.09c0.42,0,0.73,0.1,0.92,0.19l-0.15,0.42c-0.13-0.07-0.41-0.19-0.79-0.19c-0.57,0-0.78,0.33-0.78,0.6c0,0.38,0.25,0.56,0.82,0.78c0.7,0.27,1.06,0.59,1.06,1.18c0,0.62-0.47,1.16-1.45,1.16c-0.41,0-0.84-0.12-1.06-0.26L84.54,49.78zM90.4,48.53H88.8v1.46h1.8v0.43h-2.34v-4.02h2.25v0.43h-1.7v1.28h1.61V48.53zM94.8,50.29c-0.2,0.09-0.59,0.19-1.1,0.19c-1.16,0-2.04-0.72-2.04-2.04c0-1.26,0.88-2.11,2.17-2.11c0.51,0,0.84,0.1,0.98,0.17l-0.13,0.42c-0.2-0.1-0.49-0.17-0.84-0.17c-0.97,0-1.62,0.6-1.62,1.66c0,0.98,0.58,1.62,1.59,1.62c0.33,0,0.66-0.07,0.87-0.17L94.8,50.29zM96.62,46.39v2.39c0,0.89,0.41,1.27,0.97,1.27c0.61,0,1.01-0.39,1.01-1.27v-2.39h0.54v2.35c0,1.24-0.67,1.74-1.56,1.74c-0.85,0-1.49-0.47-1.49-1.71v-2.38H96.62zM105.14,46.39v4.02h-0.54v-4.02H105.14zM107.48,46.83h-1.26v-0.44h3.07v0.44h-1.27v3.58h-0.54V46.83zM111.46,50.41v-1.7l-1.31-2.32h0.61l0.58,1.11c0.16,0.31,0.28,0.56,0.41,0.83h0.01c0.11-0.26,0.26-0.53,0.42-0.83l0.6-1.11h0.6L112,48.7v1.71H111.46zM119.56,50.23c-0.24,0.08-0.71,0.22-1.27,0.22c-0.63,0-1.14-0.16-1.55-0.53c-0.36-0.33-0.58-0.87-0.58-1.5c0.01-1.19,0.85-2.08,2.25-2.08c0.48,0,0.86,0.11,1.03,0.19l-0.13,0.42c-0.22-0.1-0.5-0.17-0.92-0.17c-1.01,0-1.67,0.61-1.67,1.62c0,1.02,0.63,1.62,1.6,1.62c0.35,0,0.59-0.05,0.71-0.11v-1.2h-0.84V48.3h1.37V50.23zM130.33,46.39v2.39c0,0.89,0.41,1.27,0.97,1.27c0.61,0,1.01-0.39,1.01-1.27v-2.39h0.54v2.35c0,1.24-0.66,1.74-1.56,1.74c-0.85,0-1.49-0.47-1.49-1.71v-2.38H130.33zM143.11,50.29c-0.2,0.09-0.59,0.19-1.1,0.19c-1.16,0-2.04-0.72-2.04-2.04c0-1.26,0.88-2.11,2.17-2.11c0.51,0,0.84,0.1,0.98,0.17l-0.13,0.42c-0.2-0.1-0.49-0.17-0.84-0.17c-0.97,0-1.62,0.6-1.62,1.66c0,0.98,0.58,1.62,1.59,1.62c0.33,0,0.66-0.07,0.87-0.17L143.11,50.29zM149.12,50.41v-4.02h0.6l1.32,2.03c0.3,0.48,0.55,0.9,0.74,1.31l0.01-0.01c-0.05-0.54-0.06-1.03-0.06-1.65v-1.69h0.5v4.02h-0.54l-1.32-2.04c-0.29-0.45-0.57-0.91-0.78-1.34l-0.02,0.01c0.03,0.51,0.04,0.99,0.04,1.66v1.72H149.12zM153.78,46.39h2.23v0.43h-1.69v1.34h1.57v0.43h-1.57v1.82h-0.54V46.39zM159.53,48.53h-1.61v1.46h1.8v0.43h-2.34v-4.02h2.25v0.43h-1.7v1.28h1.61V48.53zM167.1,48.53h-1.61v1.46h1.8v0.43h-2.34v-4.02h2.25v0.43h-1.7v1.28h1.61V48.53zM168.59,50.41v-4.02h0.6l1.32,2.03c0.3,0.48,0.55,0.9,0.74,1.31l0.01-0.01c-0.05-0.54-0.06-1.03-0.06-1.65v-1.69h0.5v4.02h-0.54l-1.32-2.04c-0.29-0.45-0.57-0.91-0.78-1.34l-0.02,0.01c0.03,0.51,0.04,0.99,0.04,1.66v1.72H168.59zM176.16,50.29c-0.2,0.09-0.59,0.19-1.1,0.19c-1.16,0-2.04-0.72-2.04-2.04c0-1.26,0.88-2.11,2.17-2.11c0.51,0,0.84,0.1,0.98,0.17l-0.13,0.42c-0.2-0.1-0.49-0.17-0.84-0.17c-0.97,0-1.62,0.6-1.62,1.66c0,0.98,0.58,1.62,1.59,1.62c0.33,0,0.66-0.07,0.87-0.17L176.16,50.29zM179.58,48.53h-1.61v1.46h1.8v0.43h-2.34v-4.02h2.25v0.43h-1.7v1.28h1.61V48.53z"/></g></svg>
