<?xml version="1.0" encoding="utf-8"?><!-- original uisgcon logo by constantine --><svg id="uisgcon" fill="#3586C7" viewBox="0 0 32 32" version="1.1" xmlns="http://www.w3.org/2000/svg"><path d="M28.757,16.357c-0.215,0-0.396-0.065-0.539-0.195c-0.144-0.129-0.226-0.299-0.245-0.503L27.968,15.6l0.394-0.052l0.012,0.056c0.03,0.144,0.079,0.248,0.146,0.309c0.065,0.06,0.144,0.089,0.24,0.089c0.115,0,0.21-0.039,0.289-0.118c0.079-0.08,0.117-0.176,0.117-0.294c0-0.113-0.035-0.202-0.107-0.274s-0.162-0.106-0.275-0.106c-0.048,0-0.108,0.009-0.182,0.028l-0.088,0.023l0.049-0.394l0.059,0.004c0.017,0.001,0.03,0.002,0.041,0.002c0.107,0,0.201-0.027,0.287-0.083c0.077-0.051,0.115-0.127,0.115-0.234c0-0.086-0.028-0.155-0.086-0.21c-0.058-0.056-0.131-0.083-0.226-0.083c-0.093,0-0.167,0.028-0.228,0.086c-0.063,0.059-0.104,0.15-0.123,0.271l-0.01,0.063l-0.403-0.072L28,14.547c0.037-0.2,0.123-0.358,0.255-0.47c0.132-0.113,0.297-0.17,0.491-0.17c0.133,0,0.258,0.029,0.371,0.087c0.115,0.058,0.204,0.14,0.265,0.241c0.061,0.101,0.092,0.21,0.092,0.325c0,0.11-0.03,0.212-0.09,0.303c-0.035,0.055-0.081,0.102-0.137,0.143c0.087,0.04,0.158,0.097,0.215,0.171c0.082,0.108,0.124,0.244,0.124,0.405c0,0.215-0.08,0.4-0.237,0.55C29.192,16.282,28.993,16.357,28.757,16.357zM27.252,16.316h-0.404v-1.708c-0.05,0.038-0.106,0.075-0.17,0.112c-0.112,0.066-0.214,0.116-0.304,0.149l-0.083,0.031v-0.397l0.035-0.017c0.149-0.07,0.282-0.157,0.396-0.258c0.109-0.099,0.188-0.195,0.232-0.285l0.017-0.035h0.281V16.316zM30.573,17.867h-5.209c-0.103,0-0.186-0.083-0.186-0.186v-5.209c0-0.103,0.083-0.186,0.186-0.186h5.209c0.104,0,0.187,0.083,0.187,0.186v5.209C30.76,17.784,30.677,17.867,30.573,17.867zM25.551,17.496h4.837v-4.838h-4.837V17.496zM23.5,17.059h-0.172c-0.042,0-0.081-0.021-0.104-0.057l-1.617-2.46c-0.13-0.2-0.25-0.384-0.359-0.564c0.005,0.22,0.005,0.495,0.005,0.958v1.998c0,0.068-0.056,0.125-0.124,0.125h-0.172c-0.068,0-0.124-0.057-0.124-0.125v-3.715c0-0.068,0.056-0.124,0.124-0.124h0.162c0.042,0,0.08,0.021,0.104,0.056l1.576,2.379c0.165,0.254,0.299,0.459,0.415,0.651c-0.01-0.308-0.01-0.617-0.01-0.994v-1.968c0-0.068,0.056-0.124,0.124-0.124H23.5c0.068,0,0.124,0.056,0.124,0.124v3.715C23.624,17.002,23.568,17.059,23.5,17.059zM18.284,17.117c-1.018,0-1.729-0.824-1.729-2.004c0-1.243,0.711-2.078,1.768-2.078c1.027,0,1.718,0.805,1.718,2.004C20.041,16.467,19.131,17.117,18.284,17.117zM18.318,13.426c-0.92,0-1.332,0.845-1.332,1.682c0,0.672,0.404,1.618,1.303,1.618c0.908,0,1.322-0.867,1.322-1.672C19.611,14.271,19.207,13.426,18.318,13.426zM15.987,16.906c0.03-0.015,0.052-0.041,0.062-0.072c0.011-0.031,0.008-0.065-0.008-0.095l-0.068-0.133c-0.032-0.061-0.106-0.085-0.167-0.054c-0.209,0.107-0.501,0.169-0.8,0.169c-0.944,0-1.509-0.603-1.509-1.613c0-1.041,0.603-1.687,1.573-1.687c0.269,0,0.515,0.053,0.711,0.154c0.029,0.015,0.064,0.018,0.096,0.007c0.032-0.011,0.058-0.034,0.072-0.064l0.069-0.143c0.029-0.061,0.004-0.134-0.057-0.165c-0.229-0.115-0.543-0.176-0.906-0.176c-1.189,0-1.989,0.827-1.989,2.058c0,1.49,0.997,2.019,1.852,2.019C15.337,17.112,15.736,17.035,15.987,16.906zM12.152,16.915c0.059-0.024,0.096-0.081,0.096-0.144v-1.633c0-0.086-0.069-0.155-0.155-0.155h-1.082c-0.086,0-0.155,0.069-0.155,0.155v0.152c0,0.085,0.069,0.155,0.155,0.155h0.745v1.132c-0.165,0.064-0.392,0.098-0.677,0.098c-1.105,0-1.497-0.857-1.497-1.592c0-0.979,0.612-1.612,1.562-1.612c0.338,0,0.55,0.075,0.714,0.149c0.076,0.034,0.165,0.002,0.202-0.072l0.068-0.138c0.02-0.038,0.022-0.081,0.008-0.121c-0.014-0.04-0.043-0.072-0.081-0.089c-0.175-0.082-0.517-0.177-0.901-0.177c-1.426,0-2.063,1.034-2.063,2.06c0,1.242,0.764,2.045,1.945,2.045C11.534,17.129,11.919,17.012,12.152,16.915zM8.558,15.989c0-0.662-0.413-0.965-1.032-1.217c-0.571-0.229-0.68-0.438-0.68-0.742c0-0.059,0.02-0.573,0.7-0.573c0.333,0,0.506,0.129,0.524,0.144c0.034,0.027,0.078,0.039,0.121,0.032c0.043-0.007,0.081-0.033,0.105-0.069l0.088-0.138c0.045-0.069,0.027-0.16-0.038-0.208c-0.139-0.103-0.422-0.212-0.801-0.212c-0.688,0-1.188,0.45-1.188,1.07c0,0.534,0.344,0.915,1.048,1.163c0.549,0.212,0.659,0.452,0.659,0.771c0,0.414-0.309,0.682-0.785,0.682c-0.313,0-0.553-0.119-0.699-0.219c-0.035-0.023-0.077-0.032-0.118-0.023c-0.041,0.008-0.077,0.033-0.1,0.068l-0.089,0.138c-0.044,0.069-0.027,0.16,0.038,0.208c0.229,0.169,0.613,0.281,0.958,0.281C8.154,17.143,8.558,16.545,8.558,15.989zM5.492,16.934v-3.715c0-0.085-0.069-0.155-0.155-0.155H5.165c-0.086,0-0.155,0.07-0.155,0.155v3.715c0,0.086,0.069,0.156,0.155,0.156h0.172C5.423,17.09,5.492,17.02,5.492,16.934zM4.024,15.458v-2.239c0-0.085-0.069-0.155-0.155-0.155H3.697c-0.086,0-0.155,0.07-0.155,0.155v2.244c0,0.795-0.333,1.232-0.937,1.232c-0.57,0-0.884-0.438-0.884-1.232v-2.244c0-0.085-0.069-0.155-0.154-0.155H1.395c-0.085,0-0.154,0.07-0.154,0.155v2.288c0,1.028,0.504,1.642,1.35,1.642C3.488,17.148,4.024,16.517,4.024,15.458zM1.772,19.247H1.63v0.459H1.55v-0.459H1.408v-0.068h0.364V19.247zM2.304,19.706h-0.08v-0.239H2.009v0.239h-0.08v-0.527h0.08v0.218h0.215v-0.218h0.08V19.706zM2.793,19.706H2.506v-0.527h0.275v0.067H2.586v0.152h0.185v0.066H2.586v0.175h0.207V19.706zM3.507,19.247H3.364v0.459h-0.08v-0.459H3.143v-0.068h0.364V19.247zM4.038,19.706h-0.08v-0.239H3.743v0.239H3.664v-0.527h0.079v0.218h0.215v-0.218h0.08V19.706zM4.24,19.179h0.08v0.527H4.24V19.179zM4.748,19.455c0.039,0.015,0.061,0.052,0.073,0.107c0.016,0.069,0.029,0.124,0.039,0.144H4.778c-0.008-0.015-0.021-0.062-0.033-0.126c-0.015-0.07-0.04-0.097-0.096-0.097H4.601v0.223H4.521v-0.52c0.034-0.007,0.081-0.012,0.129-0.012c0.068,0,0.116,0.013,0.149,0.042c0.028,0.024,0.042,0.061,0.042,0.104C4.842,19.388,4.801,19.434,4.748,19.455L4.748,19.455zM4.654,19.423c0.066,0,0.107-0.038,0.107-0.094c0-0.068-0.048-0.092-0.104-0.092c-0.027,0-0.047,0.002-0.057,0.005v0.181H4.654zM5.346,19.247H5.203v0.459h-0.08v-0.459H4.981v-0.068h0.364V19.247zM5.789,19.706H5.502v-0.527h0.275v0.067H5.582v0.152h0.185v0.066H5.582v0.175h0.207V19.706zM6.245,19.706H5.958v-0.527h0.275v0.067H6.038v0.152h0.185v0.066H6.038v0.175h0.207V19.706zM6.792,19.706H6.711L6.572,19.46c-0.031-0.058-0.063-0.119-0.087-0.179l-0.003,0.001c0.004,0.066,0.005,0.135,0.005,0.227v0.197H6.414v-0.527h0.087l0.138,0.244c0.033,0.058,0.063,0.119,0.085,0.175l0.003-0.001c-0.007-0.071-0.009-0.139-0.009-0.224v-0.194h0.074V19.706zM7.313,19.247H7.17v0.459H7.09v-0.459H6.948v-0.068h0.364V19.247zM7.844,19.706h-0.08v-0.239H7.549v0.239H7.47v-0.527h0.079v0.218h0.215v-0.218h0.08V19.706zM8.644,19.491c0,0.156-0.078,0.223-0.19,0.223c-0.108,0-0.182-0.063-0.182-0.221v-0.314h0.08v0.319c0,0.105,0.044,0.15,0.104,0.15c0.066,0,0.107-0.046,0.107-0.15v-0.319h0.08V19.491zM9.206,19.706H9.113l-0.146-0.248l-0.044,0.055v0.193H8.844v-0.527h0.079v0.248h0.002c0.013-0.021,0.025-0.04,0.038-0.059l0.136-0.189h0.097l-0.173,0.225L9.206,19.706zM9.585,19.455c0.039,0.015,0.062,0.052,0.074,0.107c0.016,0.069,0.028,0.124,0.039,0.144H9.615c-0.008-0.015-0.02-0.062-0.033-0.126c-0.015-0.07-0.04-0.097-0.096-0.097H9.438v0.223H9.359v-0.52c0.033-0.007,0.08-0.012,0.128-0.012c0.068,0,0.117,0.013,0.15,0.042c0.027,0.024,0.042,0.061,0.042,0.104C9.68,19.388,9.638,19.434,9.585,19.455L9.585,19.455zM9.492,19.423c0.065,0,0.107-0.038,0.107-0.094c0-0.068-0.049-0.092-0.105-0.092c-0.027,0-0.046,0.002-0.056,0.005v0.181H9.492zM10.261,19.706h-0.084l-0.048-0.155H9.968l-0.046,0.155H9.84l0.162-0.527H10.1L10.261,19.706zM10.116,19.49l-0.042-0.138c-0.009-0.035-0.019-0.072-0.025-0.104h-0.002c-0.008,0.032-0.016,0.071-0.024,0.104L9.98,19.49H10.116zM10.425,19.179h0.08v0.527h-0.08V19.179zM11.084,19.706h-0.081l-0.138-0.246c-0.032-0.058-0.063-0.119-0.088-0.179l-0.003,0.001c0.004,0.066,0.006,0.135,0.006,0.227v0.197h-0.074v-0.527h0.087l0.138,0.244c0.033,0.058,0.063,0.119,0.086,0.175l0.002-0.001c-0.006-0.071-0.009-0.139-0.009-0.224v-0.194h0.074V19.706zM11.286,19.179h0.08v0.527h-0.08V19.179zM11.949,19.706h-0.084l-0.048-0.155h-0.161l-0.045,0.155h-0.082l0.161-0.527h0.098L11.949,19.706zM11.805,19.49l-0.041-0.138c-0.01-0.035-0.019-0.072-0.026-0.104h-0.002c-0.007,0.032-0.016,0.071-0.024,0.104l-0.042,0.139H11.805zM12.491,19.706H12.41l-0.138-0.246c-0.032-0.058-0.063-0.119-0.088-0.179l-0.003,0.001c0.004,0.066,0.006,0.135,0.006,0.227v0.197h-0.074v-0.527H12.2l0.138,0.244c0.033,0.058,0.063,0.119,0.086,0.175l0.002-0.001c-0.006-0.071-0.008-0.139-0.008-0.224v-0.194h0.073V19.706zM12.921,19.179H13v0.527h-0.079V19.179zM13.579,19.706h-0.08L13.36,19.46c-0.032-0.058-0.063-0.119-0.088-0.179l-0.003,0.001c0.005,0.066,0.006,0.135,0.006,0.227v0.197h-0.073v-0.527h0.087l0.138,0.244c0.032,0.058,0.063,0.119,0.085,0.175l0.002-0.001c-0.006-0.071-0.008-0.139-0.008-0.224v-0.194h0.073V19.706zM13.782,19.706v-0.527h0.274v0.067h-0.194v0.162h0.18v0.066h-0.18v0.231H13.782zM14.654,19.438c0,0.184-0.098,0.276-0.227,0.276c-0.134,0-0.22-0.109-0.22-0.269c0-0.166,0.092-0.274,0.227-0.274C14.575,19.171,14.654,19.286,14.654,19.438zM14.292,19.443c0,0.107,0.048,0.205,0.139,0.205c0.093,0,0.14-0.096,0.14-0.208c0-0.101-0.044-0.204-0.138-0.204C14.335,19.236,14.292,19.341,14.292,19.443zM15.059,19.455c0.039,0.015,0.062,0.052,0.074,0.107c0.016,0.069,0.028,0.124,0.039,0.144h-0.083c-0.008-0.015-0.02-0.062-0.033-0.126c-0.014-0.07-0.039-0.097-0.096-0.097h-0.048v0.223h-0.079v-0.52c0.033-0.007,0.08-0.012,0.128-0.012c0.069,0,0.117,0.013,0.15,0.042c0.027,0.024,0.042,0.061,0.042,0.104C15.153,19.388,15.112,19.434,15.059,19.455L15.059,19.455zM14.966,19.423c0.066,0,0.107-0.038,0.107-0.094c0-0.068-0.048-0.092-0.105-0.092c-0.026,0-0.046,0.002-0.056,0.005v0.181H14.966zM15.846,19.706h-0.077l-0.012-0.222c-0.004-0.071-0.008-0.153-0.007-0.219h-0.002c-0.016,0.063-0.037,0.13-0.059,0.196l-0.079,0.239h-0.06l-0.072-0.234c-0.021-0.068-0.04-0.138-0.053-0.201h-0.002c-0.002,0.065-0.006,0.149-0.01,0.223l-0.012,0.218h-0.075l0.036-0.527h0.1l0.074,0.232c0.02,0.064,0.035,0.123,0.048,0.181h0.002c0.014-0.057,0.03-0.116,0.051-0.182l0.076-0.231h0.101L15.846,19.706zM16.422,19.706h-0.084l-0.048-0.155h-0.161l-0.045,0.155h-0.082l0.161-0.527h0.098L16.422,19.706zM16.277,19.49l-0.041-0.138c-0.01-0.035-0.019-0.072-0.026-0.104h-0.002c-0.007,0.032-0.016,0.071-0.024,0.104l-0.042,0.139H16.277zM16.86,19.247h-0.143v0.459h-0.08v-0.459h-0.142v-0.068h0.364V19.247zM17.017,19.179h0.08v0.527h-0.08V19.179zM17.722,19.438c0,0.184-0.099,0.276-0.227,0.276c-0.135,0-0.221-0.109-0.221-0.269c0-0.166,0.093-0.274,0.228-0.274C17.642,19.171,17.722,19.286,17.722,19.438zM17.358,19.443c0,0.107,0.049,0.205,0.14,0.205c0.092,0,0.14-0.096,0.14-0.208c0-0.101-0.044-0.204-0.139-0.204C17.402,19.236,17.358,19.341,17.358,19.443zM18.277,19.706h-0.081l-0.138-0.246c-0.032-0.058-0.063-0.119-0.088-0.179l-0.003,0.001c0.004,0.066,0.006,0.135,0.006,0.227v0.197h-0.074v-0.527h0.087l0.138,0.244c0.033,0.058,0.063,0.119,0.086,0.175l0.002-0.001c-0.006-0.071-0.009-0.139-0.009-0.224v-0.194h0.074V19.706zM18.953,19.261c-0.018-0.009-0.051-0.022-0.094-0.022c-0.063,0-0.089,0.036-0.089,0.069c0,0.045,0.029,0.067,0.097,0.096c0.085,0.038,0.125,0.084,0.125,0.156c0,0.088-0.065,0.154-0.184,0.154c-0.05,0-0.103-0.015-0.128-0.032l0.019-0.066c0.028,0.018,0.07,0.031,0.114,0.031c0.063,0,0.098-0.032,0.098-0.08c0-0.045-0.027-0.072-0.09-0.099c-0.078-0.031-0.132-0.079-0.132-0.15c0-0.084,0.067-0.146,0.172-0.146c0.051,0,0.088,0.013,0.111,0.024L18.953,19.261zM19.45,19.706h-0.287v-0.527h0.275v0.067h-0.195v0.152h0.185v0.066h-0.185v0.175h0.207V19.706zM19.963,19.691c-0.022,0.012-0.066,0.022-0.124,0.022c-0.146,0-0.245-0.098-0.245-0.266c0-0.179,0.113-0.276,0.259-0.276c0.061,0,0.098,0.013,0.112,0.021l-0.018,0.065c-0.021-0.011-0.053-0.02-0.092-0.02c-0.103,0-0.178,0.069-0.178,0.206c0,0.13,0.067,0.202,0.176,0.202c0.036,0,0.073-0.008,0.096-0.019L19.963,19.691zM20.503,19.491c0,0.156-0.078,0.223-0.19,0.223c-0.108,0-0.182-0.063-0.182-0.221v-0.314h0.08v0.319c0,0.105,0.044,0.15,0.104,0.15c0.065,0,0.107-0.046,0.107-0.15v-0.319h0.08V19.491zM20.929,19.455c0.039,0.015,0.062,0.052,0.074,0.107c0.016,0.069,0.028,0.124,0.039,0.144h-0.083c-0.008-0.015-0.02-0.062-0.033-0.126c-0.015-0.07-0.04-0.097-0.096-0.097h-0.048v0.223h-0.079v-0.52c0.033-0.007,0.08-0.012,0.128-0.012c0.069,0,0.117,0.013,0.15,0.042c0.027,0.024,0.042,0.061,0.042,0.104C21.023,19.388,20.981,19.434,20.929,19.455L20.929,19.455zM20.836,19.423c0.066,0,0.107-0.038,0.107-0.094c0-0.068-0.048-0.092-0.105-0.092c-0.027,0-0.046,0.002-0.056,0.005v0.181H20.836zM21.209,19.179h0.08v0.527h-0.08V19.179zM21.809,19.247h-0.143v0.459h-0.079v-0.459h-0.143v-0.068h0.364V19.247zM22.338,19.179l-0.164,0.305v0.223h-0.079v-0.221l-0.155-0.307h0.09l0.063,0.139c0.017,0.038,0.032,0.071,0.046,0.108h0.001c0.014-0.035,0.029-0.07,0.047-0.109l0.063-0.138H22.338zM23.092,19.685c-0.029,0.012-0.087,0.027-0.15,0.027c-0.228,0-0.257-0.182-0.257-0.266c0-0.171,0.112-0.272,0.271-0.272c0.052,0,0.097,0.009,0.122,0.021l-0.018,0.065c-0.024-0.011-0.057-0.02-0.104-0.02c-0.108,0-0.187,0.068-0.187,0.202c0,0.133,0.072,0.203,0.176,0.203c0.035,0,0.059-0.005,0.07-0.012v-0.148h-0.091v-0.063h0.168V19.685zM23.508,19.455c0.04,0.015,0.062,0.052,0.074,0.107c0.016,0.069,0.029,0.124,0.039,0.144h-0.082c-0.008-0.015-0.021-0.062-0.033-0.126c-0.015-0.07-0.04-0.097-0.096-0.097h-0.049v0.223h-0.079v-0.52c0.034-0.007,0.081-0.012,0.128-0.012c0.069,0,0.117,0.013,0.15,0.042c0.027,0.024,0.042,0.061,0.042,0.104C23.603,19.388,23.562,19.434,23.508,19.455L23.508,19.455zM23.415,19.423c0.066,0,0.107-0.038,0.107-0.094c0-0.068-0.048-0.092-0.105-0.092c-0.026,0-0.046,0.002-0.056,0.005v0.181H23.415zM24.206,19.438c0,0.184-0.099,0.276-0.227,0.276c-0.135,0-0.221-0.109-0.221-0.269c0-0.166,0.093-0.274,0.228-0.274C24.126,19.171,24.206,19.286,24.206,19.438zM23.843,19.443c0,0.107,0.049,0.205,0.14,0.205c0.092,0,0.14-0.096,0.14-0.208c0-0.101-0.044-0.204-0.139-0.204C23.887,19.236,23.843,19.341,23.843,19.443zM24.753,19.491c0,0.156-0.078,0.223-0.19,0.223c-0.108,0-0.181-0.063-0.181-0.221v-0.314h0.08v0.319c0,0.105,0.043,0.15,0.104,0.15c0.066,0,0.107-0.046,0.107-0.15v-0.319h0.08V19.491zM24.953,19.186c0.032-0.006,0.074-0.011,0.128-0.011c0.065,0,0.114,0.014,0.146,0.042c0.029,0.025,0.048,0.065,0.048,0.114c0,0.128-0.102,0.172-0.197,0.172c-0.017,0-0.031-0.001-0.045-0.003v0.206h-0.079V19.186zM25.032,19.436c0.012,0.003,0.026,0.004,0.045,0.004c0.073,0,0.117-0.038,0.117-0.105c0-0.063-0.044-0.096-0.108-0.096c-0.024,0-0.043,0.002-0.054,0.004V19.436zM26.017,19.691c-0.022,0.012-0.067,0.022-0.124,0.022c-0.146,0-0.245-0.098-0.245-0.266c0-0.179,0.112-0.276,0.259-0.276c0.061,0,0.098,0.013,0.112,0.021l-0.018,0.065c-0.021-0.011-0.053-0.02-0.092-0.02c-0.103,0-0.178,0.069-0.178,0.206c0,0.13,0.067,0.202,0.176,0.202c0.036,0,0.072-0.008,0.096-0.019L26.017,19.691zM26.59,19.438c0,0.184-0.099,0.276-0.227,0.276c-0.135,0-0.221-0.109-0.221-0.269c0-0.166,0.093-0.274,0.228-0.274C26.51,19.171,26.59,19.286,26.59,19.438zM26.227,19.443c0,0.107,0.049,0.205,0.14,0.205c0.092,0,0.14-0.096,0.14-0.208c0-0.101-0.044-0.204-0.139-0.204C26.271,19.236,26.227,19.341,26.227,19.443zM27.146,19.706h-0.081l-0.138-0.246c-0.032-0.058-0.063-0.119-0.088-0.179l-0.003,0.001c0.004,0.066,0.006,0.135,0.006,0.227v0.197h-0.074v-0.527h0.087l0.138,0.244c0.033,0.058,0.063,0.119,0.086,0.175l0.002-0.001c-0.006-0.071-0.009-0.139-0.009-0.224v-0.194h0.074V19.706zM27.348,19.706v-0.527h0.274v0.067h-0.194v0.162h0.181v0.066h-0.181v0.231H27.348zM28.083,19.706h-0.287v-0.527h0.275v0.067h-0.195v0.152h0.185v0.066h-0.185v0.175h0.207V19.706zM28.478,19.455c0.039,0.015,0.062,0.052,0.073,0.107c0.017,0.069,0.029,0.124,0.04,0.144h-0.083c-0.008-0.015-0.02-0.062-0.033-0.126c-0.015-0.07-0.04-0.097-0.096-0.097h-0.048v0.223h-0.079v-0.52c0.033-0.007,0.08-0.012,0.128-0.012c0.068,0,0.117,0.013,0.15,0.042c0.027,0.024,0.042,0.061,0.042,0.104C28.572,19.388,28.53,19.434,28.478,19.455L28.478,19.455zM28.385,19.423c0.065,0,0.107-0.038,0.107-0.094c0-0.068-0.049-0.092-0.105-0.092c-0.027,0-0.046,0.002-0.056,0.005v0.181H28.385zM29.045,19.706h-0.287v-0.527h0.275v0.067h-0.195v0.152h0.185v0.066h-0.185v0.175h0.207V19.706zM29.592,19.706h-0.081l-0.139-0.246c-0.031-0.058-0.063-0.119-0.087-0.179l-0.003,0.001c0.004,0.066,0.006,0.135,0.006,0.227v0.197h-0.074v-0.527h0.087l0.138,0.244c0.033,0.058,0.063,0.119,0.085,0.175l0.003-0.001c-0.007-0.071-0.009-0.139-0.009-0.224v-0.194h0.074V19.706zM30.138,19.691c-0.021,0.012-0.066,0.022-0.124,0.022c-0.146,0-0.245-0.098-0.245-0.266c0-0.179,0.113-0.276,0.259-0.276c0.061,0,0.098,0.013,0.112,0.021l-0.017,0.065c-0.022-0.011-0.054-0.02-0.093-0.02c-0.102,0-0.178,0.069-0.178,0.206c0,0.13,0.067,0.202,0.177,0.202c0.035,0,0.072-0.008,0.095-0.019L30.138,19.691zM30.594,19.706h-0.287v-0.527h0.275v0.067h-0.195v0.152h0.185v0.066h-0.185v0.175h0.207V19.706z"/></svg>
