<?xml version="1.0" encoding="utf-8"?><!-- original uisgcon logo by constantine --><svg id="uisgcon" fill="#6C4997" viewBox="0 0 240 48" version="1.1" xmlns="http://www.w3.org/2000/svg"><path d="M138.61,7.29c-8.52,0-14.25,6.73-14.25,16.75c0,9.51,5.73,16.16,13.93,16.16c6.82,0,14.17-5.24,14.17-16.75C152.46,13.79,146.89,7.29,138.61,7.29z M138.33,37.05c-7.24,0-10.5-7.63-10.5-13.04c0-6.75,3.32-13.56,10.74-13.56c7.16,0,10.42,6.8,10.42,13.13C148.99,30.06,145.66,37.05,138.33,37.05z M59.62,31.11c0,4.51-3.13,9.05-10.12,9.05c-2.73,0-5.78-0.89-7.58-2.22c-0.42-0.31-0.53-0.9-0.25-1.35l0.71-1.11c0.15-0.23,0.38-0.38,0.64-0.44c0.26-0.05,0.54,0,0.76,0.15c1.21,0.83,3.2,1.81,5.78,1.81c4,0,6.58-2.26,6.58-5.75c0-3.16-1.48-4.9-5.47-6.45c-3.54-1.25-8.29-3.57-8.29-9.15c0-4.86,3.92-8.38,9.33-8.38c2.99,0,5.27,0.9,6.31,1.66c0.42,0.31,0.53,0.9,0.25,1.34l-0.71,1.11c-0.15,0.24-0.4,0.4-0.68,0.45c-0.28,0.04-0.56-0.03-0.79-0.2c-0.71-0.56-2.28-1.21-4.38-1.21c-4.66,0-5.9,3.06-5.9,4.87c0,2.95,1.42,4.52,5.64,6.21C56.36,23.52,59.62,25.91,59.62,31.11z M23.08,8.77v18.05c0,8.38-4.23,13.38-11.31,13.38c-3.2,0-10.64-1.26-10.64-12.98V8.77c0-0.55,0.45-1,1-1h1.39c0.55,0,1,0.45,1,1v18.09c0,6.47,2.69,10.19,7.37,10.19c5.03,0,7.81-3.62,7.81-10.19V8.77c0-0.55,0.45-1,1-1h1.39C22.63,7.77,23.08,8.22,23.08,8.77z M34.91,8.77v29.95c0,0.55-0.45,1-1,1h-1.39c-0.55,0-1-0.45-1-1V8.77c0-0.55,0.45-1,1-1h1.39C34.46,7.77,34.91,8.22,34.91,8.77z M181.35,8.77v29.95c0,0.55-0.45,1-1,1h-1.39c-0.34,0-0.65-0.17-0.84-0.45l-13.04-19.84c-1.05-1.61-2.01-3.09-2.9-4.55c0.04,1.78,0.04,3.99,0.04,7.72v16.11c0,0.55-0.45,1-1,1h-1.39c-0.55,0-1-0.45-1-1V8.77c0-0.55,0.45-1,1-1h1.31c0.33,0,0.65,0.17,0.83,0.45l12.71,19.18c1.33,2.05,2.41,3.71,3.34,5.25c-0.08-2.49-0.08-4.97-0.08-8.01V8.77c0-0.55,0.45-1,1-1h1.39C180.9,7.77,181.35,8.22,181.35,8.77z M120.21,37.15c0.12,0.24,0.15,0.51,0.06,0.77c-0.08,0.25-0.26,0.46-0.5,0.58c-2.02,1.04-5.25,1.66-8.63,1.66c-6.88,0-14.92-4.26-14.92-16.27c0-9.92,6.44-16.59,16.03-16.59c2.93,0,5.46,0.49,7.31,1.42c0.49,0.25,0.69,0.84,0.45,1.33l-0.56,1.15c-0.12,0.24-0.33,0.43-0.58,0.51c-0.25,0.08-0.53,0.07-0.77-0.06c-1.58-0.81-3.56-1.24-5.73-1.24c-7.82,0-12.68,5.21-12.68,13.6c0,8.14,4.55,13,12.17,13c2.41,0,4.76-0.5,6.45-1.36c0.49-0.25,1.09-0.06,1.34,0.43L120.21,37.15z M89.38,24.24v13.17c0,0.4-0.24,0.77-0.62,0.92c-1.87,0.78-4.93,1.7-8.91,1.7c-9.38,0-15.44-6.37-15.44-16.24c0-8.14,5.07-16.35,16.39-16.35c3.06,0,5.77,0.76,7.17,1.4c0.25,0.11,0.43,0.32,0.52,0.58c0.09,0.25,0.07,0.54-0.05,0.78l-0.56,1.11c-0.24,0.48-0.81,0.68-1.31,0.46c-1.34-0.6-3.08-1.22-5.85-1.22c-7.8,0-12.84,5.2-12.84,13.24c0,6.04,3.23,13.08,12.33,13.08c2.42,0,4.33-0.29,5.7-0.86v-9.55h-6.26c-0.55,0-1-0.45-1-1v-1.23c0-0.55,0.45-1,1-1h8.73C88.93,23.24,89.38,23.69,89.38,24.24z M208.19,14.71h2.26v19.42h-3.25V20.36c-0.4,0.3-0.86,0.61-1.37,0.9c-0.9,0.53-1.73,0.94-2.45,1.2l-0.67,0.25v-3.2l0.29-0.13c1.21-0.57,2.28-1.27,3.18-2.08c0.89-0.8,1.52-1.57,1.88-2.3L208.19,14.71z M229.28,26.68v3.06h-2.48v4.39h-3.25v-4.39h-7.95v-2.72l8.61-12.24h2.59v11.9H229.28z M223.54,26.68V20.5l-4.29,6.19H223.54z M237.38,46.5h-42c-0.83,0-1.5-0.67-1.5-1.5V3c0-0.83,0.67-1.5,1.5-1.5h42c0.83,0,1.5,0.67,1.5,1.5v42C238.88,45.83,238.2,46.5,237.38,46.5z M196.88,43.5h39v-39h-39V43.5z"/></svg>
