<?xml version="1.0" encoding="utf-8"?><!-- original uisgcon logo by constantine --><svg id="uisgcon" fill="#6C4997" viewBox="0 0 182 52" version="1.1" xmlns="http://www.w3.org/2000/svg"><path d="M138.31,1.37c-8.51,0-14.23,6.72-14.23,16.73c0,9.5,5.72,16.14,13.91,16.14c6.82,0,14.15-5.24,14.15-16.73C152.15,7.86,146.59,1.37,138.31,1.37z M138.04,31.09c-7.24,0-10.49-7.62-10.49-13.03c0-6.74,3.32-13.54,10.73-13.54c7.15,0,10.41,6.79,10.41,13.11C148.68,24.11,145.35,31.09,138.04,31.09z M59.42,25.16c0,4.5-3.13,9.04-10.11,9.04c-2.73,0-5.77-0.89-7.57-2.22c-0.42-0.31-0.53-0.9-0.25-1.34l0.71-1.11c0.15-0.23,0.38-0.38,0.64-0.44c0.26-0.05,0.54,0,0.76,0.15c1.21,0.82,3.19,1.81,5.78,1.81c3.99,0,6.57-2.25,6.57-5.74c0-3.15-1.48-4.9-5.46-6.44c-3.54-1.25-8.28-3.56-8.28-9.13c0-4.85,3.92-8.37,9.32-8.37c2.99,0,5.26,0.89,6.3,1.66c0.42,0.31,0.53,0.9,0.25,1.34l-0.71,1.11c-0.15,0.24-0.4,0.4-0.68,0.45c-0.28,0.04-0.56-0.03-0.78-0.2c-0.71-0.56-2.28-1.21-4.37-1.21c-4.65,0-5.89,3.06-5.89,4.87c0,2.95,1.42,4.51,5.63,6.21C56.17,17.58,59.42,19.97,59.42,25.16z M22.92,2.85v18.03c0,8.37-4.22,13.36-11.3,13.36C8.43,34.24,1,32.97,1,21.27V2.85c0-0.55,0.45-1,1-1h1.39c0.55,0,1,0.45,1,1v18.07c0,6.47,2.68,10.18,7.36,10.18c5.03,0,7.8-3.61,7.8-10.18V2.85c0-0.55,0.45-1,1-1h1.39C22.48,1.85,22.92,2.29,22.92,2.85z M34.74,2.85v29.92c0,0.55-0.45,1-1,1h-1.39c-0.55,0-1-0.45-1-1V2.85c0-0.55,0.45-1,1-1h1.39C34.29,1.85,34.74,2.29,34.74,2.85z M181,2.85v29.92c0,0.55-0.45,1-1,1h-1.39c-0.34,0-0.65-0.17-0.83-0.45L164.76,13.5c-1.04-1.61-2.01-3.09-2.89-4.54c0.04,1.77,0.04,3.99,0.04,7.71v16.09c0,0.55-0.45,1-1,1h-1.39c-0.55,0-1-0.45-1-1V2.85c0-0.55,0.45-1,1-1h1.31c0.33,0,0.65,0.17,0.83,0.45l12.7,19.16c1.33,2.04,2.4,3.7,3.34,5.24c-0.08-2.48-0.08-4.96-0.08-8V2.85c0-0.55,0.45-1,1-1H180C180.55,1.85,181,2.29,181,2.85z M119.94,31.19c0.12,0.24,0.15,0.51,0.06,0.76s-0.26,0.46-0.5,0.58c-2.02,1.04-5.24,1.66-8.62,1.66c-6.88,0-14.9-4.26-14.9-16.25c0-9.91,6.43-16.57,16.01-16.57c2.93,0,5.45,0.49,7.3,1.41c0.49,0.24,0.69,0.84,0.45,1.33l-0.55,1.15c-0.12,0.24-0.33,0.43-0.58,0.51c-0.25,0.08-0.53,0.07-0.77-0.06c-1.58-0.81-3.56-1.24-5.72-1.24c-7.81,0-12.67,5.21-12.67,13.58c0,8.13,4.54,12.99,12.15,12.99c2.41,0,4.75-0.5,6.44-1.36c0.49-0.25,1.09-0.06,1.34,0.43L119.94,31.19z M89.15,18.3v13.16c0,0.4-0.24,0.77-0.62,0.92c-1.86,0.78-4.92,1.7-8.9,1.7c-9.37,0-15.42-6.37-15.42-16.21c0-8.13,5.06-16.33,16.37-16.33c3.06,0,5.77,0.75,7.16,1.4c0.25,0.11,0.43,0.32,0.52,0.58c0.09,0.25,0.07,0.53-0.05,0.78l-0.56,1.11c-0.24,0.48-0.81,0.68-1.3,0.46c-1.34-0.6-3.08-1.22-5.85-1.22c-7.79,0-12.83,5.19-12.83,13.23c0,6.03,3.22,13.07,12.31,13.07c2.41,0,4.33-0.29,5.7-0.86v-9.54h-6.25c-0.55,0-1-0.45-1-1V18.3c0-0.55,0.45-1,1-1h8.72C88.7,17.3,89.15,17.75,89.15,18.3z M4.77,46.13H3.39v4.42H2.62v-4.42H1.25v-0.66h3.51V46.13z M9.81,50.55H9.04v-2.31H6.97v2.31H6.2v-5.08h0.77v2.1h2.07v-2.1h0.77V50.55z M14.44,50.55h-2.77v-5.08h2.65v0.64h-1.89v1.47h1.78v0.64h-1.78v1.69h2V50.55z M20.47,47.83c0.53,0.13,1.02,0.56,1.02,1.27c0,0.54-0.25,0.85-0.44,1.02c-0.34,0.32-0.9,0.48-1.73,0.48c-0.45,0-0.79-0.03-1.01-0.06v-5c0.29-0.06,0.74-0.11,1.19-0.11c1.55,0,1.81,0.76,1.81,1.27c0,0.48-0.3,0.91-0.84,1.11V47.83z M19.54,47.6c0.61,0,1-0.34,1-0.81c0-0.61-0.49-0.76-0.97-0.76c-0.25,0-0.4,0.02-0.5,0.04v1.53H19.54z M19.07,49.98c0.11,0.02,0.27,0.03,0.46,0.03c0.62,0,1.15-0.26,1.15-0.93c0-0.67-0.58-0.92-1.17-0.92h-0.44V49.98z M23.14,45.48h0.77v5.08h-0.77V45.48z M27.94,48.14c0.38,0.14,0.59,0.5,0.71,1.04c0.15,0.66,0.28,1.19,0.38,1.38h-0.8c-0.07-0.15-0.19-0.59-0.32-1.22c-0.14-0.68-0.38-0.93-0.92-0.93h-0.46v2.15h-0.76v-5.01c0.33-0.06,0.78-0.11,1.23-0.11c0.66,0,1.13,0.12,1.45,0.41c0.27,0.23,0.41,0.58,0.41,1c0,0.65-0.4,1.09-0.91,1.29V48.14z M27.05,47.83c0.64,0,1.04-0.36,1.04-0.91c0-0.66-0.46-0.88-1.02-0.88c-0.26,0-0.44,0.02-0.54,0.05v1.75H27.05z M33.63,46.13h-1.37v4.42h-0.77v-4.42h-1.37v-0.66h3.51V46.13z M38.67,50.55H37.9v-2.31h-2.07v2.31h-0.77v-5.08h0.77v2.1h2.07v-2.1h0.77V50.55z M40.54,45.54c0.31-0.05,0.71-0.1,1.23-0.1c0.62,0,1.09,0.13,1.4,0.41c0.29,0.24,0.46,0.63,0.46,1.09c0,1.24-0.98,1.66-1.9,1.66c-0.16,0-0.3-0.01-0.43-0.03v1.99h-0.76V45.54z M41.3,47.95c0.11,0.03,0.25,0.04,0.43,0.04c0.7,0,1.13-0.36,1.13-1.01c0-0.62-0.42-0.93-1.04-0.93c-0.24,0-0.42,0.03-0.52,0.04V47.95z M47.9,50.55h-2.73v-5.08h0.77v4.43h1.96V50.55z M53.25,50.55h-0.81l-0.46-1.49h-1.55l-0.44,1.49H49.2l1.55-5.08h0.94L53.25,50.55z M51.86,48.47l-0.4-1.33c-0.09-0.33-0.18-0.69-0.25-1H51.2c-0.07,0.31-0.15,0.68-0.24,1l-0.4,1.33H51.86z M57.91,50.42c-0.21,0.11-0.64,0.21-1.19,0.21c-1.41,0-2.36-0.94-2.36-2.56c0-1.73,1.09-2.67,2.5-2.67c0.58,0,0.94,0.13,1.08,0.2l-0.17,0.63c-0.21-0.1-0.51-0.18-0.89-0.18c-0.98,0-1.71,0.66-1.71,1.98c0,1.25,0.65,1.95,1.7,1.95c0.35,0,0.7-0.07,0.92-0.18L57.91,50.42z M62.22,50.55h-2.77v-5.08h2.65v0.64h-1.88v1.47H62v0.64h-1.78v1.69h2V50.55z M70.12,47.97c0,1.77-0.95,2.66-2.18,2.66c-1.29,0-2.12-1.05-2.12-2.58c0-1.6,0.89-2.65,2.19-2.65C69.35,45.4,70.12,46.51,70.12,47.97z M66.62,48.03c0,1.03,0.46,1.97,1.34,1.97c0.89,0,1.35-0.92,1.35-2c0-0.97-0.43-1.96-1.33-1.96C67.04,46.03,66.62,47.03,66.62,48.03z M71.76,50.55v-5.08h2.64v0.64h-1.87v1.57h1.74v0.64h-1.74v2.23H71.76z M81.92,48.48c0,1.51-0.75,2.14-1.83,2.14c-1.04,0-1.75-0.61-1.75-2.12v-3.03h0.77v3.07c0,1.02,0.42,1.45,1,1.45c0.64,0,1.03-0.44,1.03-1.45v-3.07h0.77V48.48z M87.26,50.55h-0.9l-1.41-2.4l-0.43,0.53v1.87h-0.76v-5.08h0.76v2.38h0.02c0.12-0.2,0.25-0.39,0.36-0.56l1.31-1.82h0.93l-1.67,2.16L87.26,50.55z M90.84,48.14c0.38,0.14,0.59,0.5,0.71,1.04c0.15,0.66,0.28,1.19,0.38,1.38h-0.8c-0.07-0.15-0.19-0.59-0.32-1.22c-0.14-0.68-0.38-0.93-0.92-0.93h-0.46v2.15h-0.76v-5.01c0.32-0.06,0.78-0.11,1.23-0.11c0.67,0,1.13,0.12,1.45,0.41c0.26,0.23,0.41,0.58,0.41,1c0,0.65-0.4,1.09-0.91,1.29V48.14z M89.94,47.83c0.64,0,1.04-0.36,1.04-0.91c0-0.66-0.46-0.88-1.02-0.88c-0.26,0-0.44,0.02-0.54,0.05v1.75H89.94z M97.27,50.55h-0.81l-0.46-1.49h-1.55l-0.44,1.49h-0.79l1.55-5.08h0.94L97.27,50.55z M95.88,48.47l-0.4-1.33c-0.09-0.33-0.18-0.69-0.25-1h-0.01c-0.07,0.31-0.15,0.68-0.24,1l-0.4,1.33H95.88z M98.78,45.48h0.77v5.08h-0.77V45.48z M105.04,50.55h-0.78l-1.33-2.38c-0.31-0.55-0.61-1.15-0.84-1.72l-0.03,0.01c0.04,0.64,0.05,1.3,0.05,2.19v1.9h-0.71v-5.08h0.84l1.33,2.35c0.32,0.56,0.6,1.14,0.82,1.68l0.02-0.01c-0.06-0.69-0.08-1.34-0.08-2.15v-1.87h0.71V50.55z M106.92,45.48h0.77v5.08h-0.77V45.48z M113.22,50.55h-0.81l-0.46-1.49h-1.55l-0.44,1.49h-0.79l1.55-5.08h0.94L113.22,50.55z M111.83,48.47l-0.4-1.33c-0.09-0.33-0.18-0.69-0.25-1h-0.01c-0.07,0.31-0.15,0.68-0.24,1l-0.41,1.33H111.83z M118.36,50.55h-0.78l-1.33-2.38c-0.3-0.55-0.61-1.15-0.84-1.72l-0.03,0.01c0.04,0.64,0.05,1.3,0.05,2.19v1.9h-0.71v-5.08h0.84l1.33,2.35c0.32,0.56,0.6,1.14,0.82,1.68l0.02-0.01c-0.06-0.69-0.08-1.34-0.08-2.15v-1.87h0.71V50.55z M125.79,50.42c-0.21,0.11-0.64,0.21-1.19,0.21c-1.41,0-2.36-0.94-2.36-2.56c0-1.73,1.09-2.67,2.5-2.67c0.58,0,0.94,0.13,1.08,0.2l-0.17,0.63c-0.21-0.1-0.51-0.18-0.89-0.18c-0.98,0-1.71,0.66-1.71,1.98c0,1.25,0.65,1.95,1.7,1.95c0.35,0,0.7-0.07,0.92-0.18L125.79,50.42z M130.92,45.48l-1.57,2.93v2.14h-0.77v-2.12l-1.49-2.95h0.87l0.6,1.33c0.17,0.37,0.31,0.69,0.45,1.05h0.01c0.13-0.34,0.28-0.68,0.44-1.05l0.6-1.32H130.92z M134.5,47.83c0.53,0.13,1.02,0.56,1.02,1.27c0,0.54-0.25,0.85-0.44,1.02c-0.34,0.32-0.9,0.48-1.73,0.48c-0.45,0-0.79-0.03-1.01-0.06v-5c0.28-0.06,0.74-0.11,1.19-0.11c1.55,0,1.81,0.76,1.81,1.27c0,0.48-0.31,0.91-0.84,1.11V47.83z M133.57,47.6c0.61,0,1-0.34,1-0.81c0-0.61-0.49-0.76-0.97-0.76c-0.25,0-0.4,0.02-0.5,0.04v1.53H133.57z M133.1,49.98c0.11,0.02,0.26,0.03,0.46,0.03c0.62,0,1.15-0.26,1.15-0.93c0-0.67-0.58-0.92-1.17-0.92h-0.44V49.98z M139.92,50.55h-2.77v-5.08h2.66v0.64h-1.88v1.47h1.78v0.64h-1.78v1.69h2V50.55z M143.64,48.14c0.38,0.14,0.59,0.5,0.71,1.04c0.15,0.66,0.28,1.19,0.38,1.38h-0.8c-0.07-0.15-0.19-0.59-0.32-1.22c-0.14-0.68-0.38-0.93-0.92-0.93h-0.46v2.15h-0.76v-5.01c0.33-0.06,0.78-0.11,1.23-0.11c0.66,0,1.13,0.12,1.45,0.41c0.26,0.23,0.41,0.58,0.41,1c0,0.65-0.4,1.09-0.91,1.29V48.14z M142.74,47.83c0.64,0,1.04-0.36,1.04-0.91c0-0.66-0.46-0.88-1.01-0.88c-0.26,0-0.44,0.02-0.54,0.05v1.75H142.74z M148.69,46.27c-0.17-0.09-0.48-0.22-0.9-0.22c-0.6,0-0.86,0.35-0.86,0.68c0,0.43,0.29,0.64,0.93,0.92c0.82,0.36,1.21,0.8,1.21,1.5c0,0.85-0.63,1.49-1.77,1.49c-0.48,0-0.98-0.14-1.23-0.31l0.17-0.64c0.27,0.17,0.68,0.3,1.1,0.3c0.6,0,0.94-0.31,0.94-0.77c0-0.43-0.26-0.7-0.86-0.95c-0.76-0.31-1.27-0.76-1.27-1.45c0-0.8,0.64-1.41,1.65-1.41c0.48,0,0.85,0.12,1.07,0.23L148.69,46.27z M153.4,50.55h-2.77v-5.08h2.65v0.64h-1.88v1.47h1.78v0.64h-1.78v1.69h2V50.55z M158.25,50.42c-0.21,0.11-0.64,0.21-1.19,0.21c-1.41,0-2.36-0.94-2.36-2.56c0-1.73,1.09-2.67,2.5-2.67c0.58,0,0.94,0.13,1.08,0.2l-0.17,0.63c-0.21-0.1-0.51-0.18-0.89-0.18c-0.98,0-1.71,0.66-1.71,1.98c0,1.25,0.65,1.95,1.7,1.95c0.35,0,0.7-0.07,0.92-0.18L158.25,50.42z M163.37,48.48c0,1.51-0.75,2.14-1.83,2.14c-1.04,0-1.74-0.61-1.74-2.12v-3.03h0.77v3.07c0,1.02,0.42,1.45,1,1.45c0.64,0,1.04-0.44,1.04-1.45v-3.07h0.77V48.48z M167.4,48.14c0.38,0.14,0.59,0.5,0.71,1.04c0.15,0.66,0.28,1.19,0.38,1.38h-0.8c-0.07-0.15-0.19-0.59-0.32-1.22c-0.14-0.68-0.38-0.93-0.92-0.93h-0.46v2.15h-0.76v-5.01c0.33-0.06,0.78-0.11,1.23-0.11c0.66,0,1.13,0.12,1.45,0.41c0.27,0.23,0.4,0.58,0.4,1c0,0.65-0.4,1.09-0.91,1.29V48.14z M166.5,47.83c0.64,0,1.04-0.36,1.04-0.91c0-0.66-0.47-0.88-1.02-0.88c-0.26,0-0.44,0.02-0.54,0.05v1.75H166.5z M170.02,45.48h0.77v5.08h-0.77V45.48z M175.72,46.13h-1.37v4.42h-0.77v-4.42h-1.37v-0.66h3.51V46.13z M180.75,45.48l-1.57,2.93v2.14h-0.77v-2.12l-1.49-2.95h0.87l0.6,1.33c0.17,0.37,0.31,0.69,0.45,1.05h0.01c0.13-0.34,0.28-0.68,0.45-1.05l0.6-1.32H180.75z"/></svg>
